<?xml version="1.0" encoding="UTF-8" standalone="no"?>
<!-- Generator: Adobe Illustrator 19.0.0, SVG Export Plug-In . SVG Version: 6.00 Build 0)  -->

<svg
   version="1.1"
   id="_x38_55033fa-f203-4bd6-a750-76a03b91c714"
   x="0px"
   y="0px"
   viewBox="41 33.9 693.8 727.1"
   style="enable-background:new 41 33.9 693.8 727.1;"
   xml:space="preserve"
   sodipodi:docname="contact-1.svg"
   inkscape:version="1.1 (c68e22c387, 2021-05-23)"
   xmlns:inkscape="http://www.inkscape.org/namespaces/inkscape"
   xmlns:sodipodi="http://sodipodi.sourceforge.net/DTD/sodipodi-0.dtd"
   xmlns:xlink="http://www.w3.org/1999/xlink"
   xmlns="http://www.w3.org/2000/svg"
   xmlns:svg="http://www.w3.org/2000/svg"><defs
   id="defs63"><linearGradient
     inkscape:collect="always"
     id="linearGradient1843"><stop
       style="stop-color:#000000;stop-opacity:0"
       offset="0"
       id="stop1839" /><stop
       style="stop-color:#000000;stop-opacity:0;"
       offset="1"
       id="stop1841" /></linearGradient><linearGradient
     inkscape:collect="always"
     xlink:href="#linearGradient1843"
     id="linearGradient1845"
     x1="177.7343"
     y1="376.48717"
     x2="449.956"
     y2="376.48717"
     gradientUnits="userSpaceOnUse"
     gradientTransform="matrix(0.85247019,0,0,0.85247019,45.273256,48.004148)" /></defs><sodipodi:namedview
   id="namedview61"
   pagecolor="#505050"
   bordercolor="#eeeeee"
   borderopacity="1"
   inkscape:pageshadow="0"
   inkscape:pageopacity="0"
   inkscape:pagecheckerboard="0"
   showgrid="false"
   inkscape:zoom="0.59689178"
   inkscape:cx="695.26841"
   inkscape:cy="474.12279"
   inkscape:window-width="1888"
   inkscape:window-height="992"
   inkscape:window-x="8"
   inkscape:window-y="46"
   inkscape:window-maximized="0"
   inkscape:current-layer="_x38_55033fa-f203-4bd6-a750-76a03b91c714" />
<style
   type="text/css"
   id="style2">
	.st0{opacity:0.21;fill:none;stroke:#2196F3;stroke-width:4;stroke-miterlimit:10;stroke-dasharray:12;enable-background:new    ;}
	.st1{opacity:0.5;fill:none;stroke:#2196F3;stroke-width:4;stroke-miterlimit:10;stroke-dasharray:12;enable-background:new    ;}
	.st2{opacity:0.21;}
	.st3{fill:none;stroke:#2196F3;stroke-width:4;stroke-miterlimit:10;}
	.st4{fill:none;stroke:#2196F3;stroke-width:4;stroke-miterlimit:10;stroke-dasharray:11.95,11.95;}
	.st5{opacity:0.5;}
	.st6{fill:none;stroke:#2196F3;stroke-width:4;stroke-miterlimit:10;stroke-dasharray:11.56,11.56;}
	.st7{fill:url(#SVGID_1_);}
	.st8{fill:#FFFFFF;}
	.st9{fill:#7B5EEA;}
	.st10{fill:#DBDBDB;}
	.st11{fill:url(#SVGID_2_);}
	.st12{opacity:0.2;}
</style>
<title
   id="title4">sync4</title>
<path
   class="st0"
   d="M131.1,394.5c0-159.3,101.6-294.8,243.5-345.4"
   id="path6" />
<path
   class="st1"
   d="M672.3,716.8c-53.6,29.1-113.7,44.3-174.7,44.2c-119.5,0-225.7-57.2-292.6-145.8"
   id="path8" />
<g
   class="st2"
   id="g16">
	<path
   class="st3"
   d="M734.8,463.6c-0.6,1.9-1.1,3.8-1.8,5.7"
   id="path10" />
	<path
   class="st4"
   d="M729.2,480.7c-35,93.9-125.5,160.8-231.6,160.8c-136.4,0-247-110.6-247-247s110.6-247,247-247   c54.1-0.1,106.8,17.7,149.8,50.6"
   id="path12" />
	<path
   class="st3"
   d="M652.1,201.8c1.6,1.3,3.1,2.5,4.6,3.8"
   id="path14" />
</g>
<g
   class="st5"
   id="g24">
	<path
   class="st3"
   d="M476.6,256.1c2-0.3,4-0.5,6-0.8"
   id="path18" />
	<path
   class="st6"
   d="M494.1,254.5c1.2,0,2.3,0,3.5,0c77.3,0,140,62.7,140,140c0,23.9-6.1,47.4-17.7,68.2"
   id="path20" />
	<path
   class="st3"
   d="M616.9,467.7c-1,1.7-2.1,3.4-3.3,5"
   id="path22" />
</g>
<linearGradient
   id="SVGID_1_"
   gradientUnits="userSpaceOnUse"
   x1="332.629"
   y1="590.4576"
   x2="587.6829"
   y2="-11.8051"
   gradientTransform="matrix(0.9208 -0.3899 0.3899 0.9208 -237.3933 273.9295)">
	<stop
   offset="0"
   style="stop-color:#808080;stop-opacity:0.25"
   id="stop26" />
	<stop
   offset="0.54"
   style="stop-color:#808080;stop-opacity:0.12"
   id="stop28" />
	<stop
   offset="1"
   style="stop-color:#808080;stop-opacity:0.1"
   id="stop30" />
</linearGradient>
<path
   class="st7"
   d="M48.5,151.1L322.8,34.9c6.2-2.6,13.4,0.3,16.1,6.5l217.4,513.3c2.6,6.2-0.3,13.4-6.5,16.1L275.4,687  c-6.2,2.6-13.4-0.3-16.1-6.5L42,167.1C39.3,160.9,42.3,153.7,48.5,151.1z"
   id="path33" />
<path
   class="st8"
   d="M56.8,156.1L320.6,44.4c6.9-2.9,14.9,0.3,17.9,7.2l210.1,496.3c2.9,6.9-0.3,14.9-7.2,17.9L277.6,677.5  c-6.9,2.9-14.9-0.3-17.9-7.2L49.6,174C46.7,167,49.9,159,56.8,156.1z"
   id="path35" />
<path
   class="st9"
   d="M268,86.5c3.1,12.2-3.1,24.8-14.6,29.7l-99.8,42.3c-11.6,4.9-25,0.6-31.5-10.1l-52.8,22.4  c-6.1,2.6-8.9,9.5-6.3,15.6l0,0l200.5,473.3c2.6,6.1,9.5,8.9,15.6,6.3l0,0l252.4-106.9c6.1-2.6,8.9-9.5,6.3-15.6l0,0L337.3,70.1  c-2.6-6.1-9.5-8.9-15.6-6.3l0,0L268,86.5z"
   id="path37" /><path
   style="fill:#190564;fill-opacity:1;stroke:url(#linearGradient1845);stroke-width:0.298777;stroke-opacity:1"
   d="m 370.26964,454.49228 c -0.98097,-0.57883 -3.08812,-1.76084 -4.68256,-2.62673 l -2.89901,-1.57434 0.94505,2.23644 0.94504,2.23645 -0.85729,0.43062 c -2.35646,1.1834 -7.19974,3.44309 -27.47104,12.81679 l -22.03405,10.18881 -0.63027,-1.35442 -0.63028,-1.35442 24.91035,-11.59202 24.9103,-11.59198 -0.94353,-2.23322 -0.94352,-2.23318 4.48104,2.54774 c 2.46456,1.40128 4.609,2.49567 4.76539,2.43196 0.15641,-0.0636 0.78786,-2.53076 1.4033,-5.48238 l 1.11893,-5.36661 0.92528,1.77901 0.9253,1.77906 -0.33464,1.6148 c -0.18404,0.88812 -0.6141,3.08559 -0.95571,4.8832 -0.3416,1.79761 -0.74335,3.32432 -0.89279,3.39265 -0.14896,0.0694 -1.07431,-0.34929 -2.05525,-0.92812 z m -96.06397,43.95391 c -2.36727,0.70102 -7.11428,1.191 -9.68373,0.99959 -3.83885,-0.28593 -8.50311,-1.70694 -12.18628,-3.71253 -2.6618,-1.44944 -6.51119,-4.6801 -8.47684,-7.11437 l -1.69521,-2.09934 -1.8134,-3.93449 c -0.99772,-2.16381 -1.94273,-4.54167 -2.10104,-5.28361 l -0.28776,-1.34904 1.67734,3.52678 c 2.73507,5.751 5.79901,9.31197 10.71685,12.45548 2.51169,1.60544 7.3849,3.52226 10.35778,4.07409 6.14847,1.14124 12.71451,0.12665 18.16765,-2.80734 4.2895,-2.30788 6.64839,-4.23422 9.45154,-7.71836 0.82747,-1.0285 1.54231,-1.8876 1.58851,-1.9091 0.0462,-0.0216 0.31075,0.44855 0.58808,1.04451 l 0.50422,1.08353 10.02268,-4.66405 10.02269,-4.66405 0.63027,1.35442 0.63027,1.35443 -10.15806,4.72704 -10.15812,4.72708 -0.50422,-1.08354 c -0.27733,-0.59595 -0.55099,-1.06177 -0.60837,-1.03507 -0.0572,0.0266 -0.84263,0.96795 -1.74529,2.09181 -2.01861,2.51326 -4.07811,4.42324 -6.45875,5.98984 -2.06622,1.35976 -6.12707,3.24935 -8.48105,3.94641 z m 103.05621,-49.49237 c -0.13372,-0.0488 -0.51737,-0.6779 -0.85248,-1.398 l -0.60927,-1.30928 17.06567,-7.94149 17.06565,-7.94149 -1.36789,-2.93953 -1.36791,-2.93953 3.65108,-1.89135 c 6.84021,-3.54337 10.22336,-7.14438 12.55468,-13.36315 1.59563,-4.25628 2.02415,-8.30076 1.31251,-12.38769 -0.32459,-1.8641 -0.77867,-3.13042 -2.2581,-6.2974 -1.01908,-2.18003 -2.17429,-4.46005 -2.56821,-5.06624 l -0.71632,-1.10211 1.50453,1.1786 1.50455,1.17861 1.82641,3.07391 c 4.23884,7.13416 4.977,14.48877 2.16252,21.54608 -2.59013,6.49477 -6.41433,10.46665 -13.07108,13.5759 l -3.30682,1.54575 1.34155,3.08306 1.34153,3.08308 -17.48447,8.20088 c -9.61644,4.51058 -17.59394,8.16095 -17.7277,8.1122 z m -106.15937,43.17805 c -4.69082,0.95236 -8.67493,0.6903 -13.19688,-0.86804 -7.37213,-2.54057 -11.96605,-6.88307 -14.95994,-14.14123 l -1.32163,-3.20416 -0.35735,-2.96435 c -0.58771,-4.87474 0.2888,-9.71291 2.5974,-14.33786 2.52692,-5.06222 6.18918,-8.53493 11.71022,-11.10416 3.90824,-1.81869 6.88028,-2.46459 10.84351,-2.35661 2.74155,0.0747 7.6071,1.08187 7.86085,1.62721 0.0772,0.1658 -0.96546,3.22425 -2.31694,6.79654 l -2.45723,6.49512 -1.58157,-0.34775 c -2.6134,-0.57461 -4.11149,-0.32865 -6.93436,1.13824 l -2.46588,1.28138 -1.13408,1.60353 c -1.44579,2.04427 -2.19434,4.59061 -2.02208,6.87855 l 0.13533,1.79797 1.23935,2.38916 1.23935,2.38917 1.4488,1.06856 c 1.63965,1.20932 4.0928,2.08964 6.01724,2.15935 3.99653,0.14473 8.46006,-2.6271 9.86707,-6.12744 l 0.42405,-1.05496 6.74997,2.44877 6.74997,2.44878 -0.67369,1.59842 c -1.56835,3.72119 -4.50928,7.47446 -7.78607,9.9367 -2.06732,1.55344 -7.32815,3.97254 -9.6755,4.44906 z m 95.57433,-45.32932 c -0.40481,-0.22924 -2.56823,-1.42466 -4.80761,-2.65645 -2.23938,-1.2318 -5.27192,-2.90697 -6.73897,-3.72261 l -2.66738,-1.48301 2.55105,5.83625 2.55104,5.83623 -6.39971,3.06641 -6.39971,3.06643 -10.33882,-22.21736 c -5.68635,-12.21953 -10.24441,-22.25347 -10.12902,-22.29763 0.11519,-0.0444 1.76406,0.63447 3.66372,1.50814 1.89967,0.87362 3.87226,1.76648 4.38353,1.98413 0.51128,0.21764 2.22399,0.97771 3.80602,1.68907 1.58206,0.71133 3.9427,1.76109 5.24593,2.33275 1.30316,0.57169 5.058,2.23515 8.34404,3.6966 8.22793,3.65935 8.33593,3.70335 8.65701,3.52758 0.15665,-0.0861 1.28386,-3.586 2.50485,-7.77824 1.221,-4.19225 2.3079,-7.91292 2.41537,-8.26817 0.10743,-0.35524 0.82533,-2.7927 1.59524,-5.41658 0.7699,-2.62389 1.46081,-4.96169 1.53533,-5.19513 0.0745,-0.23353 0.4754,-1.60603 0.89085,-3.05024 0.41544,-1.44417 1.0152,-3.41433 1.33282,-4.37814 l 0.57746,-1.75235 10.37563,22.27665 10.37563,22.27666 -6.5012,3.02532 -6.5012,3.02534 -2.79451,-6.00521 -2.79452,-6.00518 -1.80261,8.5564 c -0.99145,4.70601 -1.89022,8.64224 -1.99724,8.74717 -0.10704,0.10497 -0.52579,0.003 -0.9306,-0.22603 z m -83.75541,13.01198 -9.83456,-21.13372 6.77209,-3.1514 6.7721,-3.15137 3.34046,7.17838 3.34048,7.17843 4.19869,-1.95385 4.19868,-1.95386 -3.34047,-7.17842 -3.34046,-7.17841 6.63666,-3.08836 6.63661,-3.08835 9.83463,21.13383 9.83459,21.13379 -6.46725,2.92122 -6.46727,2.92122 -3.44421,-7.21253 -3.4442,-7.21252 -4.46074,2.07579 -4.46074,2.07579 3.29977,7.27975 3.29977,7.27976 -6.53514,3.12943 -6.53515,3.12945 z m 46.91245,3.46202 c -0.16018,-0.15539 -4.59902,-9.62242 -9.86428,-21.03774 l -9.57321,-20.75521 5.11441,-2.46461 5.11442,-2.46462 1.80401,0.50834 1.80401,0.50833 9.21651,19.98747 9.21651,19.98747 -6.27083,3.00644 c -4.87059,2.33528 -6.33569,2.9437 -6.56184,2.72404 z m 52.21742,-49.62731 -9.84357,-21.15308 11.90746,-5.39393 11.90745,-5.39395 1.84416,-0.28604 c 6.07752,-0.9427 12.54327,0.93796 16.88939,4.91251 4.23518,3.87311 6.76969,9.96352 6.53157,15.69536 -0.19244,4.63298 -2.63703,10.00136 -6.10715,13.41147 l -1.46986,1.44444 -5.75707,2.85394 -5.75713,2.85396 1.34156,3.08306 1.34163,3.08302 -6.49235,3.02121 -6.49232,3.02119 z m 22.73823,-8.29729 c 1.44536,-1.1741 2.23815,-3.32852 1.92579,-5.2332 l -0.23501,-1.43307 -0.91807,-1.07127 c -1.16321,-1.35732 -2.25795,-1.91089 -3.89642,-1.97022 l -1.29572,-0.0469 -4.48037,2.08493 -4.48038,2.08495 2.24799,4.83074 c 1.2364,2.65692 2.36703,4.87426 2.51264,4.92732 0.44998,0.16419 7.4554,-3.22755 8.61953,-4.17332 z m -7.65272,-2.48308 -0.69329,-1.48984 2.39597,-1.11497 2.39595,-1.11494 0.67884,0.28676 c 0.80468,0.33989 0.96002,0.61758 0.9689,1.73206 l 0.007,0.83623 -2.5299,1.1773 -2.52993,1.17729 z m -92.19153,60.36705 -0.56724,-1.21896 0.94809,-0.44119 0.94808,-0.44119 0.56724,1.21897 0.56726,1.21897 -0.94809,0.4412 -0.94808,0.44119 z m -34.941,1.40163 c -2.69846,-1.0255 -4.35031,-1.06307 -6.32569,-0.14382 -1.85342,0.86249 -3.07157,2.24372 -3.61515,4.09914 l -0.41269,1.40862 -0.30528,-0.65601 c -0.55534,-1.1934 0.12479,-3.97688 1.35352,-5.53931 2.04842,-2.60468 4.21919,-3.09815 8.0424,-1.82818 1.46377,0.48625 2.80749,0.81609 2.98605,0.733 0.17853,-0.083 1.11449,-2.33522 2.07982,-5.00474 l 1.75516,-4.85368 0.52692,0.92149 0.5271,0.92139 -1.91015,5.15968 c -1.05059,2.83783 -2.04357,5.26277 -2.20667,5.38882 -0.16307,0.12598 -1.28593,-0.14681 -2.49524,-0.60646 z m 22.71364,-27.67729 -1.70176,-3.65695 0.94809,-0.44119 0.94808,-0.44119 1.70176,3.65694 1.70174,3.65692 -0.94808,0.44119 -0.94809,0.44119 z m 49.59072,-21.2619 c -0.41244,-0.17424 -0.71937,-0.38197 -0.68204,-0.46167 0.0372,-0.0797 0.89662,-0.88743 1.90957,-1.795 1.01295,-0.9076 1.81918,-1.84751 1.7916,-2.08873 l -0.0501,-0.43853 -2.19449,1.2229 c -1.20695,0.67266 -2.52709,1.47036 -2.93359,1.7728 l -0.73916,0.54979 -5.20128,-2.30156 c -2.8607,-1.26586 -5.33144,-2.38927 -5.49059,-2.4965 -0.19054,-0.12829 1.97998,-1.22558 6.35004,-3.21039 3.65162,-1.65851 6.5926,-3.11587 6.53557,-3.23844 -0.0571,-0.1226 -0.65093,-0.20371 -1.31966,-0.18026 -2.58457,0.0908 -3.63823,0.37799 -5.81731,1.58545 l -2.17112,1.20309 -0.6308,-0.92539 c -1.57338,-2.30785 -2.28694,-2.30719 -6.71312,0.006 l -3.21529,1.6805 -2.03371,-0.86647 c -1.11853,-0.47653 -2.41299,-1.04541 -2.8766,-1.26416 l -0.84289,-0.39773 1.69898,3.67323 1.69898,3.67325 -7.0866,3.71479 c -3.89765,2.04314 -7.14915,3.88315 -7.2256,4.08889 -0.0764,0.20563 -2.11893,1.29544 -4.53886,2.42156 l -4.39991,2.04749 -1.16021,-0.11346 c -1.6244,-0.1589 -5.26166,1.01094 -8.23339,2.64804 l -2.48385,1.36847 -1.85562,-0.77939 -1.85565,-0.77938 -2.74881,0.76829 c -4.62601,1.29296 -4.81588,1.61458 -0.97603,1.65347 2.13779,0.0217 5.71736,0.79776 5.94605,1.28921 0.0349,0.0748 -3.26452,1.68465 -7.33191,3.57741 l -7.39524,3.44136 -2.65754,-0.95487 c -1.46166,-0.52517 -2.68975,-0.86658 -2.72915,-0.75864 -0.0392,0.10781 0.35554,0.6324 0.87737,1.16561 1.69291,1.72942 1.90295,2.99671 0.33551,2.02443 -1.39597,-0.86595 -5.42657,-2.28169 -5.88652,-2.06765 -0.58808,0.27367 -0.5926,0.26656 0.86081,1.29589 1.11049,0.786 1.87391,1.71558 1.53745,1.87215 -0.0733,0.0341 -1.1992,-0.11528 -2.5025,-0.33228 -1.30332,-0.21671 -2.40322,-0.30207 -2.44426,-0.18968 -0.0411,0.11249 0.46999,0.49038 1.13551,0.83997 l 1.21008,0.6356 -0.74472,0.0886 c -0.40963,0.0487 -1.7123,0.55873 -2.89493,1.13325 -1.18266,0.57453 -2.02882,0.90726 -1.88027,0.73956 0.41398,-0.4679 -0.0351,-1.13166 -1.05542,-1.55984 -0.69263,-0.29067 -0.78967,-0.39879 -0.39078,-0.43539 0.29186,-0.0268 1.00393,-0.16962 1.58239,-0.31739 l 1.05179,-0.26868 -0.25557,-0.54918 c -0.15304,-0.3289 -1.20833,-0.84391 -2.63089,-1.28397 -1.30646,-0.4041 -2.23026,-0.80228 -2.05292,-0.88481 0.17726,-0.0824 1.21421,-0.19429 2.30418,-0.24838 2.42033,-0.12013 2.50136,-0.15474 2.14527,-0.91585 -0.16941,-0.36227 -1.48179,-1.1533 -3.23947,-1.95274 -1.625,-0.73909 -2.88822,-1.37469 -2.80716,-1.41241 0.44326,-0.20627 3.91438,-0.0924 5.54081,0.18176 2.05119,0.34578 2.67105,0.2216 2.61936,-0.52481 -0.0475,-0.68629 -1.28451,-1.76237 -3.19821,-2.78214 -0.90359,-0.48154 -1.62053,-0.9368 -1.5932,-1.01168 0.0982,-0.26921 2.99616,-0.0301 4.76962,0.39359 1.95798,0.46772 2.66917,0.3217 2.91095,-0.59758 l 0.15506,-0.58942 -1.70013,-1.36674 c -0.93507,-0.75174 -1.66867,-1.45302 -1.63021,-1.5584 0.0384,-0.10527 0.929,-0.27988 1.97896,-0.38775 1.04998,-0.10788 2.03048,-0.25263 2.17887,-0.3217 1.46665,-0.6825 -4.72074,-3.53876 -11.12378,-5.13505 -2.05036,-0.51114 -3.99424,-1.02564 -4.31975,-1.14332 -0.89086,-0.32208 -4.52095,-0.23123 -4.65607,0.11654 -0.18533,0.47701 0.8562,1.32611 2.46772,2.0118 2.70448,1.15072 1.87019,1.30991 -2.02794,0.38689 -1.37122,-0.3247 -2.03676,-0.3107 -2.83226,0.0595 -0.88559,0.41212 -1.64849,1.40164 -1.43476,1.86097 0.18153,0.39007 1.95343,1.55768 3.40855,2.24603 0.91744,0.43403 1.60046,0.82057 1.51786,0.85901 -0.0826,0.0385 -1.19894,-0.1904 -2.48072,-0.50861 -4.19427,-1.0412 -6.36936,-1.00392 -6.97789,0.11961 -0.45023,0.83119 0.18369,1.26081 2.31709,1.57029 1.46469,0.2124 2.68773,0.89127 2.09924,1.16513 -0.12852,0.0598 -0.97795,0.0369 -1.88774,-0.051 -2.34189,-0.226 -3.56741,-0.0468 -5.34901,0.78225 -1.22285,0.56905 -1.54771,0.84189 -1.5178,1.27429 0.0243,0.35028 0.27324,0.58963 0.68348,0.65934 1.96293,0.33167 2.38091,1.07528 1.04607,1.86084 -0.46124,0.27152 -0.769,0.64326 -0.68384,0.82627 0.17858,0.38375 3.18811,0.50646 4.615,0.18818 0.53182,-0.11859 1.11123,-0.12075 1.28767,-0.005 0.21364,0.14047 0.11767,0.22468 -0.28962,0.25317 -2.25106,0.15586 -5.93366,1.66944 -5.84679,2.40304 0.0239,0.20173 0.79553,0.25761 1.77473,0.12878 0.95289,-0.12534 1.84518,-0.15383 1.98287,-0.0632 0.34739,0.22841 -0.22352,0.45576 -1.03117,0.41053 -1.06211,-0.0593 -4.58815,0.84449 -5.18599,1.32936 -0.83073,0.67379 -0.26643,1.37006 1.53399,1.8928 l 1.61937,0.47016 -0.76582,0.12472 c -3.43933,0.56012 -4.6931,1.06567 -4.6374,1.86981 0.026,0.37503 0.35828,0.59894 1.08484,0.73096 1.27125,0.231 3.31419,0.98978 3.23671,1.20217 -0.0309,0.0846 -1.00681,0.14776 -2.16876,0.14042 -1.16198,-0.008 -2.50637,0.16969 -2.98756,0.39348 l -0.87491,0.40685 1.42167,0.8164 c 0.78193,0.44901 1.38155,0.92634 1.33251,1.06071 -0.0491,0.13453 -0.72664,0.0905 -1.5058,-0.0974 -1.73029,-0.41741 -2.74774,-0.24248 -3.58348,0.61607 -0.3494,0.35906 -0.71746,0.62275 -0.81779,0.58618 -0.10032,-0.0367 -0.0384,-1.58964 0.13777,-3.45114 0.2717,-2.87105 0.93337,-6.05303 1.7691,-8.50762 0.11,-0.32306 0.41869,-2.17209 0.68598,-4.10897 0.59405,-4.3047 1.05604,-5.51228 3.85754,-10.08289 1.20915,-1.97269 2.65235,-4.842 3.20713,-6.37627 1.22088,-3.37637 2.69462,-8.34923 2.4391,-8.23032 -0.32846,0.15285 -3.97502,4.82099 -4.96131,6.35115 -3.25644,5.05237 -6.99166,13.22611 -9.30423,20.3604 -0.59418,1.8331 -1.31032,3.95895 -1.59137,4.72411 -0.28109,0.76517 -0.5765,1.86353 -0.65648,2.4408 -0.0825,0.5957 -0.25965,0.92876 -0.40954,0.77023 -0.3402,-0.35996 0.16533,-4.97754 0.88348,-8.06924 1.60852,-6.9248 4.35143,-13.84186 8.44181,-21.28855 1.90215,-3.46291 5.42233,-9.21977 5.72335,-9.35985 0.65659,-0.30556 1.32791,-2.51814 1.33191,-4.39 0.005,-2.28689 0.79943,-5.18524 1.9702,-7.18692 0.39347,-0.6727 0.70271,-1.4064 0.68718,-1.63042 -0.0155,-0.22406 -1.13263,-1.36002 -2.48248,-2.52437 -3.74924,-3.23403 -6.74841,-6.27978 -11.21343,-11.38748 -1.82213,-2.08443 -5.62197,-7.5258 -7.81586,-11.19234 -4.5439,-7.59404 -8.89917,-18.2066 -10.86737,-26.48065 -3.18392,-13.38477 -3.23531,-29.09724 -0.13698,-41.88666 1.03806,-4.28499 4.48704,-13.68333 6.297,-17.15902 8.43811,-16.20418 18.98158,-26.57003 34.2542,-33.67713 15.85439,-7.37783 32.0847,-8.83455 49.50014,-4.44282 3.89034,0.98107 11.90038,3.97532 15.86857,5.93189 8.87641,4.37668 17.01804,10.4021 24.19463,17.9059 1.70019,1.7777 3.53746,3.79719 4.08281,4.4878 l 0.99156,1.25562 2.4738,-1.18388 2.47378,-1.18388 1.82028,0.0115 c 2.42069,0.0153 4.14563,0.65933 6.06917,2.26592 l 1.58979,1.3278 2.12382,4.03449 c 2.33401,4.43372 2.46543,4.57985 5.72028,6.36068 3.87584,2.12057 5.49253,3.78157 7.95838,8.17644 0.98009,1.74676 2.0021,3.34244 2.27119,3.54599 0.26916,0.2035 1.27408,1.18415 2.23328,2.17919 2.5158,2.60981 5.39495,4.67125 8.88502,6.36159 3.69483,1.78951 6.71905,3.83913 9.59391,6.50215 l 2.15058,1.99206 12.49337,4.53989 c 11.16145,4.05588 14.16325,5.31765 13.96212,5.86889 -0.0337,0.092 -0.51151,0.0612 -1.06205,-0.0683 -0.5506,-0.12948 -1.01815,-0.17349 -1.039,-0.0977 -0.0208,0.0758 0.43789,1.69574 1.01943,3.60011 3.16809,10.37499 3.39204,19.65693 0.67277,27.88124 -1.47016,4.44652 -4.99249,9.8469 -8.78591,13.47044 -1.5232,1.45499 -2.57465,3.24341 -2.62568,4.46603 l -0.0423,1.014 1.06281,0.29966 1.0628,0.29966 2.23933,-1.25947 c 7.74133,-4.35373 12.17982,-10.97023 13.54309,-20.18875 0.56925,-3.84936 0.71612,-10.07918 0.32725,-13.87917 -0.17255,-1.68598 -0.20683,-3.1159 -0.0763,-3.17752 0.31344,-0.14702 1.07544,2.31105 1.65397,5.32525 1.13643,5.93372 0.57079,13.23399 -1.43344,18.50081 -1.88894,4.96381 -4.19998,8.15673 -8.39677,11.60089 -0.91269,0.74902 -1.6449,1.48898 -1.62715,1.64437 0.0863,0.75502 4.63082,0.26569 6.76766,-0.72869 0.60469,-0.28138 1.32788,-0.75267 1.607,-1.04747 0.27919,-0.29478 1.1071,-1.06189 1.83979,-1.70476 1.65847,-1.45519 3.39169,-4.02181 4.62939,-6.8554 0.52169,-1.19433 1.01763,-2.20364 1.10209,-2.24296 0.81774,-0.38053 -0.006,4.61564 -1.30371,7.90392 -1.63744,4.15041 -4.1803,7.40039 -7.63186,9.7542 l -1.78037,1.21411 -2.33909,0.55594 c -3.97681,0.9451 -5.89183,1.14401 -7.09014,0.73634 -0.28599,-0.0972 -1.26372,-0.34113 -2.17277,-0.54188 -0.90904,-0.20076 -2.3064,-0.6235 -3.10527,-0.93942 l -1.45246,-0.57439 -1.14895,0.53466 -1.14896,0.53467 -0.32113,-1.16872 c -0.37471,-1.36358 -0.58929,-1.33907 -1.40808,0.16092 -1.07157,1.96326 -1.66082,1.67898 -1.91228,-0.92262 -0.20923,-2.16457 -0.46027,-2.36211 -1.04844,-0.82505 -0.2876,0.75159 -0.60906,1.89319 -0.71436,2.53686 -0.17126,1.04711 -0.72321,1.79798 -0.9552,1.29946 -0.0486,-0.10438 0.13225,-1.67448 0.40162,-3.48918 0.26947,-1.81471 0.38238,-3.33875 0.25081,-3.38671 -0.13143,-0.0481 -0.67744,0.95035 -1.21319,2.21854 -0.53574,1.26819 -1.05401,2.27665 -1.1517,2.24101 -0.0977,-0.0356 -0.12935,-1.27275 -0.0704,-2.74913 0.16455,-4.11894 -0.19022,-4.23213 -1.83067,-0.58403 -0.59264,1.31796 -1.10925,2.48751 -1.14799,2.59898 -0.0389,0.11139 -0.77965,1.7538 -1.64643,3.64967 -1.09612,2.39749 -1.79042,3.54677 -2.28032,3.77475 -0.3874,0.18027 -0.74907,0.2317 -0.8037,0.1143 -0.0546,-0.1174 0.25262,-1.60818 0.68278,-3.31286 1.08259,-4.29027 1.43374,-6.45161 1.04082,-6.40671 -0.43648,0.0498 -3.22298,5.42084 -4.68275,9.02591 -0.71914,1.77607 -1.38246,2.95301 -1.77054,3.14156 -0.4265,0.20768 -0.60618,0.16609 -0.57438,-0.13183 0.10221,-0.95816 0.8508,-5.16893 1.15265,-6.48337 0.1769,-0.77036 0.22112,-1.43735 0.0982,-1.4822 -0.40942,-0.14938 -1.28606,1.77347 -2.54191,5.57536 -0.68371,2.0699 -1.34588,3.72594 -1.47152,3.68009 -0.1983,-0.0724 0.14971,-4.29327 0.59379,-7.20105 0.23618,-1.54628 -0.24052,-0.94655 -1.25003,1.57268 -1.31045,3.2703 -2.05903,5.84584 -1.87658,6.4566 0.0855,0.28649 -0.0279,0.65415 -0.25212,0.81711 l -0.40775,0.29614 -1.15274,-2.47715 c -0.85659,-1.84074 -1.09683,-2.63018 -0.93551,-3.07258 0.11945,-0.32745 0.27801,-0.46478 0.35227,-0.30522 0.29031,0.62385 0.59967,-2e-4 0.88729,-1.78993 0.69158,-4.30314 0.19045,-4.7594 -1.03725,-0.94438 l -0.86305,2.68191 -0.46256,-0.99402 c -0.25441,-0.54671 -0.5667,-0.94555 -0.69385,-0.88638 -0.12726,0.0592 -0.49978,1.05334 -0.8279,2.2092 -0.32813,1.15587 -0.67634,2.07251 -0.7738,2.03693 -0.0975,-0.0355 0.0115,-2.05635 0.24229,-4.49065 0.54776,-5.7801 0.52024,-6.082 -0.38906,-4.27121 -1.00691,2.00501 -1.73948,4.90014 -2.00107,7.90828 -0.42269,4.85582 -1.97108,13.96862 -2.35054,13.83019 -0.0765,-0.0279 -0.14552,-0.70021 -0.15311,-1.49397 -0.0266,-2.76881 -0.41444,-2.74055 -1.50134,0.10934 -1.61139,4.2251 -2.99981,6.50572 -5.89915,9.6897 -2.80152,3.07664 -7.03887,6.81292 -9.73594,8.58465 -0.62465,0.4104 -1.30358,0.88965 -1.50875,1.06504 -0.20511,0.17548 -0.7105,0.17626 -1.12291,0.002 z m 62.10573,-49.84652 c 2.5998,-2.11486 4.39428,-4.15219 6.20547,-7.04533 6.01118,-9.60217 6.31398,-21.88474 0.91599,-37.15704 -0.58293,-1.64908 -0.48022,-1.58668 -4.56523,-2.77665 -1.43721,-0.41869 -2.94653,-0.87799 -3.35404,-1.02064 -0.40747,-0.14267 -0.76821,-0.18445 -0.80162,-0.0928 -0.0336,0.0915 0.57236,1.86112 1.34622,3.93224 1.80376,4.82755 2.89142,10.0727 3.08709,14.88711 0.10888,2.67958 -0.61654,8.90294 -1.42092,12.18952 -0.74713,3.05287 -3.22148,7.6449 -6.04021,11.20986 l -2.30451,2.91453 0.39987,1.08793 c 0.59499,1.61831 1.35505,2.52533 2.62381,3.13026 1.30322,0.62148 1.7888,0.46506 3.90804,-1.25889 z m -99.40764,45.04365 c 0.87319,-0.81242 1.54451,-1.56971 1.49186,-1.68286 -0.15845,-0.3405 -1.46508,0.39812 -2.93436,1.65868 l -1.38431,1.18766 -1.27252,-0.0975 c -2.1654,-0.16592 -4.49258,0.6721 -8.02241,2.88898 -4.36319,2.74026 -6.05722,3.29537 -9.88423,3.23894 -3.40706,-0.0502 -3.37342,-0.0536 -3.20004,0.31894 0.0668,0.14357 1.30814,0.43721 2.75851,0.65246 3.3141,0.49195 5.92977,0.0931 8.22142,-1.25374 4.51727,-2.65479 7.1903,-3.93095 8.58315,-4.09792 2.04998,-0.24561 3.84431,-1.1403 5.64292,-2.81367 z m 56.83801,-28.10038 c 0.36204,-1.12004 1.49119,-5.24161 2.50918,-9.15907 1.018,-3.91747 1.98551,-7.5545 2.15001,-8.08232 0.42329,-1.35829 0.16568,-1.65195 -1.23528,-1.40785 -1.51048,0.26318 -1.65437,0.47205 -1.61856,2.34906 0.0404,2.12087 -0.95332,7.49717 -2.09398,11.32834 -0.29791,1.00051 -0.61044,2.70304 -0.69456,3.7834 -0.0841,1.08036 -0.20443,2.3219 -0.26736,2.75904 -0.22081,1.5327 0.56743,0.54277 1.25057,-1.5706 z m -38.77133,17.5983 c 0.50512,-0.80021 0.33898,-1.39786 -0.2444,-0.87942 -0.22442,0.19932 -1.17507,0.8916 -2.11263,1.53821 -1.62769,1.1226 -1.76917,1.52523 -0.44905,1.27783 0.87859,-0.1647 2.31212,-1.15401 2.80614,-1.93665 z m 46.43111,-22.3294 c 0.22124,-0.95663 0.94165,-3.9869 1.60091,-6.73395 0.65922,-2.74705 1.25452,-5.37887 1.32284,-5.84846 l 0.12424,-0.85381 -0.88494,-0.22135 c -0.53606,-0.1341 -1.18308,-0.0436 -1.64126,0.2296 l -0.75633,0.45099 -0.11554,2.19579 c -0.28906,5.49419 -0.57354,12.46255 -0.51403,12.59042 0.18903,0.40621 0.50435,-0.25428 0.86406,-1.80922 z m -12.08358,4.15335 c 0.31033,-0.91472 0.7336,-2.47717 0.9406,-3.47214 0.40482,-1.9457 0.71081,-10.64196 0.37874,-10.76314 -0.61746,-0.22528 -2.42979,11.95499 -2.3619,15.87387 0.0116,0.67304 0.54007,-0.1576 1.04256,-1.63859 z m -18.9428,8.92509 c 3.33476,-2.40008 4.79138,-3.72078 6.24374,-5.6613 0.94111,-1.25742 1.1643,-1.79491 0.97854,-2.35643 -0.13231,-0.40012 -0.0489,-1.62529 0.18542,-2.72268 0.96388,-4.51268 2.13189,-9.76762 2.39206,-10.76197 0.31359,-1.19856 0.21309,-1.63921 -0.31753,-1.39229 -0.3958,0.18419 -1.21622,2.51786 -1.80062,5.12199 -0.20439,0.91073 -0.40739,1.74668 -0.45111,1.85763 -0.61773,1.56765 -1.426,5.37779 -1.48131,6.98262 l -0.0708,2.0563 -1.29972,1.38742 c -1.91896,2.04847 -6.23197,5.67899 -8.60661,7.2447 -1.14424,0.75448 -2.12387,1.49081 -2.17696,1.63631 -0.20361,0.55807 4.03625,-1.68747 6.40488,-3.3923 z m 56.11701,-30.94602 c 5.87381,-4.83823 9.6222,-11.48994 10.54993,-18.72144 0.80873,-6.30385 -0.8647,-15.31638 -4.15796,-22.39333 l -1.05816,-2.27391 -2.05167,-0.65838 c -2.89782,-0.92988 -4.95194,-1.48836 -4.99661,-1.35848 -0.0209,0.0609 0.58908,1.15379 1.35559,2.42834 2.86576,4.76493 4.40879,10.23753 5.13353,18.20713 0.18186,1.99952 0.22886,3.9796 0.1045,4.40022 -0.12432,0.42061 -0.42339,1.89459 -0.6645,3.27555 -0.71032,4.06802 -1.82787,6.5833 -4.28179,9.6369 -1.19052,1.48145 -2.6179,3.09272 -3.17192,3.58053 -1.76058,1.55026 -1.84259,3.65479 -0.21793,5.59394 0.55708,0.66493 0.57733,0.6549 3.45699,-1.71707 z m -7.39369,-3.81768 c 3.48274,-2.59855 7.10429,-6.62065 8.11893,-9.01693 0.9852,-2.32674 1.75294,-5.88247 1.66098,-7.69293 -0.50946,-10.02997 -1.53416,-14.61171 -4.5393,-20.29656 -3.35242,-6.34182 -8.15116,-10.79734 -16.23251,-15.0716 -1.33865,-0.70803 -2.8791,-1.46385 -3.42328,-1.67964 -2.5023,-0.99221 -8.41719,-7.15462 -10.69457,-11.14201 -0.85861,-1.50355 -2.01962,-3.23668 -2.57979,-3.85145 -1.09919,-1.20631 -4.01685,-3.27232 -4.97833,-3.52522 -0.66986,-0.17616 -2.40616,-1.47619 -3.36965,-2.52297 -0.35372,-0.38427 -1.56366,-2.42822 -2.68874,-4.54209 -1.62285,-3.04925 -2.26141,-4.01181 -3.09016,-4.65855 -1.5035,-1.17318 -2.951,-1.68325 -4.683,-1.65023 l -1.51592,0.0289 -1.51316,0.92397 c -4.13249,2.52346 -5.20071,5.983 -3.54305,11.47445 0.94552,3.13228 2.90006,6.44184 6.30958,10.68318 1.28151,1.59428 3.15647,4.20117 4.16651,5.79313 1.35118,2.12957 2.00113,2.9271 2.45968,3.01806 0.34277,0.068 0.68066,0.0363 0.7509,-0.0705 0.22755,-0.34608 -1.3624,-2.94749 -2.66984,-4.36876 -1.09644,-1.19173 -2.82847,-3.32568 -4.3288,-5.33326 -1.08336,-1.44961 -4.09761,-6.38464 -4.72396,-7.73412 -0.38506,-0.82922 -0.78782,-2.03693 -0.89526,-2.68374 -0.23402,-1.40805 0.48565,-3.95276 1.09733,-3.88021 0.3212,0.0378 0.3889,0.17526 0.28306,0.57537 -0.0758,0.28873 0.006,0.6643 0.18184,0.83451 0.17584,0.17026 0.2525,0.49582 0.16867,0.72419 -0.2167,0.59389 1.99296,5.78823 2.4872,5.84684 0.28485,0.0337 0.37825,0.24665 0.3471,0.79265 -0.0522,0.9337 0.5364,1.55286 1.01057,1.0628 0.19269,-0.19941 0.34849,-0.25004 0.34609,-0.11281 -0.003,0.13719 -0.0165,0.65343 -0.0314,1.14718 -0.0315,1.0512 0.66715,1.9482 0.93839,1.20477 0.29196,-0.80017 0.63968,-0.71603 0.49168,0.11898 -0.17997,1.01513 0.38654,2.2551 1.00978,2.21227 0.28846,-0.02 0.64026,0.31361 0.88472,0.83896 0.4898,1.05254 1.94396,1.96413 3.56393,2.23421 1.18229,0.19712 1.74104,0.5945 1.0589,0.7532 -0.1948,0.0453 -0.29991,0.32338 -0.23383,0.61774 0.0801,0.35725 0.9893,0.83087 2.73157,1.42319 3.63649,1.2363 4.63728,1.83343 5.26709,3.14262 l 0.52564,1.09193 3.33883,0.42354 c 3.23232,0.41003 5.15671,0.91067 5.38482,1.40084 0.0607,0.13049 -0.24692,0.18641 -0.68363,0.12428 -3.18434,-0.4524 -11.40382,-0.70365 -11.53195,-0.35249 -0.0217,0.0593 0.87711,1.59572 1.99727,3.41393 1.1202,1.81818 3.24175,5.71093 4.71457,8.65054 3.22866,6.44415 6.26747,13.92801 9.29862,22.89996 l 0.63697,1.88538 1.43794,1.2258 c 1.65863,1.41389 1.79377,1.64399 1.97227,3.35804 0.19357,1.85866 1.25629,5.33562 1.61963,5.29896 0.1658,-0.0167 0.46683,0.32514 0.66905,0.75968 0.45763,0.98342 1.45717,0.69583 1.2646,-0.36387 l -0.12348,-0.6791 0.66545,0.34451 0.66545,0.34449 0.23488,-0.85517 c 0.12925,-0.47036 0.21752,-1.0305 0.19625,-1.24476 -0.0274,-0.2768 0.19986,-0.31825 0.7852,-0.14327 0.45312,0.13537 0.84422,0.17587 0.86917,0.0898 0.18592,-0.64132 0.0394,-1.77729 -0.33223,-2.57593 -0.54306,-1.167 -0.33794,-1.52091 1.37085,-2.36537 0.73661,-0.36455 1.56163,-0.82217 1.83301,-1.01785 0.35526,-0.25629 0.59315,-0.20255 0.85,0.19191 0.50182,0.77049 1.22633,0.62627 1.52904,-0.30438 l 0.25651,-0.7886 0.90249,0.9726 c 0.49639,0.53497 1.33517,1.06086 1.86398,1.16872 l 0.96147,0.19606 0.80704,-0.75835 c 0.84257,-0.79176 2.42957,-4.54291 3.13323,-7.40593 0.22551,-0.91752 0.53517,-1.62254 0.68813,-1.56675 0.33445,0.12208 0.65633,3.75466 0.38194,4.3105 -0.10632,0.21539 -0.578,0.68033 -1.04814,1.03319 -1.3333,1.00072 -1.87293,2.21619 -1.62105,3.6515 0.12339,0.70377 0.24485,1.57623 0.26977,1.93882 0.054,0.78556 -2.95858,5.13889 -4.73004,6.83532 l -1.25375,1.20066 -4.07159,1.87294 -4.07157,1.87294 -3.29453,0.31817 c -1.81198,0.17501 -3.79197,0.54967 -4.39998,0.8326 -1.17125,0.54505 -2.03151,1.67223 -1.74542,2.287 0.42251,0.90796 5.78777,0.57711 9.37313,-0.57797 2.53781,-0.8176 6.50676,-2.89642 8.80763,-4.61313 z m -9.7289,-5.98372 c -0.2054,-3.78174 -0.85682,-7.21624 -1.49209,-7.86692 -0.34879,-0.35734 -0.40224,-0.098 -0.26257,1.27559 l 0.1753,1.72405 -0.53489,-0.90447 c -0.6188,-1.04624 -1.33382,-3.99293 -1.00583,-4.14556 0.12206,-0.0569 0.45046,0.17822 0.72957,0.52239 l 0.5075,0.62573 0.69893,-0.51278 0.69891,-0.51276 0.85364,1.05084 c 0.99266,1.22199 1.38197,1.33873 1.94824,0.58425 l 0.41105,-0.54768 0.2491,0.53531 c 0.33873,0.7279 0.12228,0.97524 -1.6065,1.83574 l -1.48728,0.74035 0.21899,1.24034 c 0.4115,2.33074 0.48363,3.86617 0.20823,4.4324 l -0.2753,0.56599 z m -56.76517,33.21082 c 2.65358,-1.61084 5.37739,-3.09938 6.05295,-3.30786 0.92736,-0.28611 1.26724,-0.52695 1.38705,-0.98247 0.0971,-0.36945 0.59015,-0.80976 1.27131,-1.13553 0.61142,-0.29373 1.55303,-0.8603 2.09133,-1.26152 0.53831,-0.40117 2.13467,-1.59147 3.54745,-2.64515 6.0208,-4.49035 11.55816,-9.15423 11.36401,-9.57145 -0.21619,-0.46457 -1.07083,-0.14272 -2.16386,0.81484 -2.3226,2.03465 -11.00581,8.0124 -17.79126,12.24798 -1.89612,1.18354 -4.74125,3.0366 -6.32256,4.11782 -1.58132,1.08127 -3.42257,2.22326 -4.09173,2.53781 -0.66861,0.31574 -2.2298,1.26271 -3.46817,2.10695 -6.75365,4.60453 -29.09985,12.76028 -46.33958,16.91264 -13.56962,3.26842 -22.4048,3.60198 -28.76892,1.08613 -1.64167,-0.64897 -3.33407,-1.6919 -3.22602,-1.98804 0.0264,-0.0725 1.03488,0.0792 2.24089,0.33722 3.24776,0.69493 5.56089,0.9751 8.86684,1.07392 10.38725,0.31051 21.54236,-1.81998 35.44016,-6.76863 3.34296,-1.19033 8.75131,-3.1118 12.01862,-4.26989 8.26733,-2.93044 8.21713,-2.90903 15.78153,-6.73297 6.34652,-3.20827 13.92364,-7.65091 19.88781,-11.66066 3.34074,-2.246 11.71354,-8.58022 11.85533,-8.96887 0.07,-0.19172 -0.15075,-0.35662 -0.50227,-0.37466 -0.44627,-0.023 -1.36115,0.53485 -3.17208,1.93448 -5.87558,4.54098 -14.78803,10.07581 -25.31029,15.71828 -7.03721,3.77364 -12.79241,6.39774 -21.34101,9.73063 -24.35686,9.4959 -45.99478,12.59132 -56.43859,8.07382 -1.05838,-0.45781 -1.97885,-0.68312 -2.04546,-0.50068 -0.0666,0.18255 0.20804,1.01853 0.61035,1.858 1.36836,2.85514 4.70322,4.59078 10.34789,5.38541 9.56123,1.34599 25.21458,-1.3256 42.22578,-7.20673 7.89215,-2.72849 10.85969,-3.97177 21.04975,-8.81895 7.98252,-3.7971 11.13654,-5.43114 14.94281,-7.74175 z m 46.3438,-23.86047 c 3.04396,-5.50064 2.78191,-13.4598 -0.76582,-23.25791 -1.87433,-5.17654 -10.47312,-23.68991 -12.2712,-26.42007 -2.09626,-3.18298 -3.35116,-4.81962 -3.85049,-5.0219 -0.5305,-0.2149 -4.39884,0.18871 -4.50136,0.46964 -0.0392,0.10735 0.33119,0.42448 0.82318,0.70439 1.45692,0.82902 2.34855,2.09336 5.65309,8.0161 2.14609,3.84649 3.90835,7.40226 5.57405,11.24693 2.4176,5.57994 4.81492,12.32602 4.92421,13.85616 0.0313,0.43851 0.32163,2.16128 0.64514,3.82828 1.23175,6.34691 0.99101,11.46372 -0.75639,16.07595 -0.53495,1.41195 -0.93184,2.65481 -0.88203,2.76191 0.17875,0.38411 2.23142,0.12973 3.45846,-0.42862 0.95511,-0.43524 1.41601,-0.86739 1.94914,-1.83086 z m -7.27979,0.13095 c 1.05928,-1.81105 1.73937,-4.89346 1.79603,-8.13994 0.0551,-3.16514 -0.37449,-4.49132 -2.07363,-6.40028 l -0.98299,-1.10432 0.072,-1.43764 c 0.0395,-0.79067 0.18024,-2.26466 0.31262,-3.27552 0.27554,-2.105 -0.22622,-4.02396 -1.47992,-5.6592 -0.46093,-0.60112 -1.16567,-1.61674 -1.56617,-2.25684 l -0.72825,-1.16382 0.0818,-1.76735 0.0818,-1.76736 -1.60869,-3.10455 -1.60868,-3.10457 -1.49837,-1.35246 c -1.86355,-1.68203 -2.13007,-2.25216 -2.4544,-5.252 l -0.26042,-2.40276 -1.10308,-1.26158 c -1.4404,-1.64743 -3.56558,-2.58876 -6.42165,-2.84444 -4.19354,-0.37536 -6.49223,0.14155 -13.92271,3.13096 l -4.99636,2.01011 -1.17915,1.00692 c -0.64855,0.55378 -1.90442,1.51976 -2.79086,2.14655 -1.94626,1.37625 -3.6309,3.53667 -3.63765,4.665 -0.003,0.45436 -0.003,1.22413 1e-4,1.71054 0.007,1.16718 0.99229,2.59574 3.15658,4.57496 0.94747,0.86645 2.11235,2.15448 2.58864,2.86228 l 0.86601,1.28691 -1.72897,0.80459 c -2.36742,1.10166 -3.20232,2.09234 -3.27804,3.88968 -0.16703,3.96374 3.54111,7.7071 7.8444,7.91909 l 1.34907,0.0665 9.3103,-4.42455 c 8.75173,-4.15897 10.8461,-5.01912 11.0666,-4.5453 0.0505,0.10843 -2.06139,1.22671 -4.6929,2.48523 -5.0651,2.42244 -10.19664,5.28742 -10.7568,6.0057 -0.18472,0.23707 -1.01819,0.84677 -1.85204,1.35515 -1.80358,1.09956 -5.05096,3.74466 -5.24279,4.27037 -0.0746,0.20461 0.0891,1.00781 0.36377,1.78502 0.37976,1.07427 0.77579,1.63889 1.65301,2.35438 1.56423,1.27636 3.36051,1.6032 6.11532,1.11264 l 2.30827,-0.41103 8.91387,-4.21417 c 4.95018,-2.34041 9.13103,-4.18302 9.40234,-4.14395 0.63071,0.0906 -0.065,0.60971 -3.6598,2.73076 -1.50433,0.88755 -3.66815,2.29247 -4.80851,3.12196 -1.33827,0.97346 -3.69753,2.28627 -6.65434,3.70283 -5.80813,2.7826 -5.45909,2.55996 -5.60485,3.56391 l -0.12452,0.85598 0.89071,1.01191 c 1.96272,2.22976 6.66584,2.97738 13.11489,2.08473 1.78796,-0.24746 3.74328,-0.34776 4.34515,-0.22283 1.23091,0.25547 3.41099,0.35983 4.47799,0.21427 l 0.70835,-0.0966 -1.02409,-1.77383 -1.0241,-1.77381 0.97704,0.45885 c 3.06301,1.43848 5.44985,2.3174 5.82245,2.14401 0.2337,-0.10876 0.74967,-0.75294 1.14658,-1.43153 z m -20.29039,1.59564 c -0.96283,-0.0329 -2.80692,-0.73147 -2.99857,-1.13593 -0.0504,-0.10632 0.47109,-0.13827 1.15874,-0.0711 l 1.25033,0.12236 -0.50233,-0.54697 -0.5023,-0.54694 1.22553,0.33121 c 0.67401,0.18218 1.71754,0.31165 2.31889,0.28773 0.60135,-0.024 1.153,0.0846 1.22586,0.24119 0.20017,0.43017 -2.03378,1.35755 -3.17612,1.31862 z m 2.68894,-2.01143 c -1.18862,-0.13514 -2.34048,-0.61075 -1.93555,-0.79919 0.14895,-0.0693 0.50773,-0.0139 0.79719,0.12326 0.61255,0.2903 1.24442,0.0712 1.18914,-0.41229 -0.022,-0.19299 0.41255,-0.22928 1.02389,-0.0856 l 1.06222,0.2498 -0.41948,0.4402 c -0.5931,0.62246 -0.56531,0.61464 -1.71742,0.48364 z m -12.17286,-7.47449 c -1.62981,-0.0362 -4.11979,-2.32382 -3.52082,-3.23473 0.10615,-0.16122 0.27958,-0.10742 0.38524,0.11964 0.2403,0.51638 1.93313,1.93216 2.17544,1.81939 0.0986,-0.0459 0.55666,0.0246 1.01794,0.1567 0.46126,0.13212 1.19353,0.30259 1.62728,0.37887 l 0.78862,0.13869 -0.67369,0.32271 c -0.37069,0.1771 -1.1805,0.31192 -1.80021,0.29817 z m 1.2935,-1.44302 c -0.44634,-0.0161 -0.93458,-0.16038 -1.08495,-0.32046 -0.16472,-0.17555 0.21859,-0.24302 0.966,-0.1698 1.71571,0.16781 1.80884,0.55154 0.11906,0.49022 z m 18.86787,-9.14857 c -1.22659,0.18705 -2.27043,0.25431 -2.31963,0.14948 -0.17593,-0.37559 1.62943,-1.40807 2.6771,-1.53095 0.58747,-0.0689 1.49124,0.0442 2.00839,0.25142 l 0.94032,0.37674 -0.53806,0.20651 c -0.29585,0.11372 -1.54158,0.35965 -2.76817,0.54667 z m -24.5015,-0.17859 c -2.03949,-0.55122 -4.69171,-3.40293 -4.0593,-4.36463 0.1173,-0.17848 0.40727,0.16705 0.73961,0.88122 0.53246,1.14419 1.28371,1.76858 2.78863,2.31766 1.03183,0.37646 1.09393,0.24261 0.37818,-0.81506 l -0.63599,-0.93983 0.57422,0.39186 c 0.31575,0.21557 1.13214,0.61421 1.81403,0.88595 l 1.23979,0.49408 -0.59489,0.27684 c -0.3272,0.15226 -0.53821,0.39871 -0.46887,0.54772 0.22484,0.48317 -0.61789,0.63703 -1.77543,0.32421 z m -3.73168,0.28485 c -1.32891,-0.81596 -2.60662,-2.54565 -2.26463,-3.06574 0.13453,-0.20456 0.3249,-0.091 0.50837,0.30331 0.16131,0.34665 0.77598,0.92206 1.36592,1.27866 0.58995,0.35661 1.44507,0.88288 1.90029,1.16949 l 0.82766,0.52108 -0.56908,0.26481 c -0.3621,0.16852 -1.00533,-0.003 -1.76853,-0.47161 z m 27.19782,-12.71533 c -0.45081,0.0378 -2.10182,0.47332 -3.66887,0.96792 l -2.8492,0.89928 1.25984,-1.13906 c 0.69295,-0.62648 1.5464,-1.27238 1.8966,-1.43535 1.21603,-0.56587 4.19626,-0.39151 4.50099,0.26335 0.12883,0.27683 -0.07,0.35429 -1.13937,0.44384 z m -28.57151,-2.30552 c -1.65131,-0.86736 -1.52122,-1.43997 0.14089,-0.62001 0.75885,0.37437 1.29854,0.80408 1.19936,0.95495 -0.0993,0.15085 -0.70231,1.3e-4 -1.34021,-0.33494 z m 1.9626,-1.06638 c -0.74416,-0.27151 -1.29102,-0.70157 -1.5162,-1.19239 -0.27262,-0.59571 -0.25079,-0.70398 0.0995,-0.48356 0.24848,0.15624 0.54587,0.48165 0.66099,0.72307 0.11661,0.24072 0.48105,0.51043 0.81321,0.59778 l 0.60386,0.15883 0.12261,-0.61828 0.12271,-0.61828 0.6782,0.28653 0.6782,0.28648 -0.54953,0.64226 -0.54951,0.64227 z m 16.4033,-8.35041 c -0.87128,0.0751 -2.0539,0.3487 -2.62806,0.60793 -1.27172,0.57429 -1.49137,0.0102 -0.37369,-0.95992 1.11614,-0.9688 2.72734,-1.16955 4.01061,-0.49976 1.22047,0.63697 1.19073,0.66209 -1.00881,0.85173 z m -44.85607,71.21995 -0.3957,-1.07279 -0.9936,0.56588 -0.99359,0.56591 0.20205,0.66557 c 0.27706,0.91259 1.11842,1.24474 1.91403,0.75556 l 0.6625,-0.40732 z m 6.43056,-1.8924 c -0.0677,-0.14538 -0.69245,-0.29301 -1.38841,-0.32798 l -1.26537,-0.0636 1.94127,-0.9165 c 1.06693,-0.50571 2.32615,-0.94554 2.79724,-0.97964 0.60849,-0.0441 0.92294,-0.20202 1.08577,-0.54555 0.18144,-0.38289 0.28052,-0.37327 0.47568,0.0463 0.42289,0.90873 0.70552,0.75113 1.22968,-0.68588 0.27881,-0.76413 0.42276,-1.42002 0.31992,-1.45752 -0.21407,-0.0781 -0.92629,0.24876 -6.8315,3.13389 -2.45177,1.19782 -4.25959,2.21796 -4.23721,2.39076 0.0213,0.16583 0.24031,0.43027 0.4865,0.5876 l 0.44728,0.28615 0.40819,-0.62265 0.40819,-0.62266 0.0824,0.63857 c 0.0453,0.35126 0.21561,0.72621 0.37854,0.83327 0.38053,0.25024 3.82578,-1.34281 3.66239,-1.69393 z m -10.53961,4.26136 c -0.11768,-0.25288 -1.31671,0.11104 -5.19764,1.57757 -7.60392,2.87341 -23.5212,6.7173 -31.6989,7.65506 -2.92402,0.3353 -9.01678,0.45217 -9.14556,0.17546 -0.1658,-0.3563 0.81895,-4.20531 1.11064,-4.34106 0.1806,-0.0841 1.05417,0.007 1.94128,0.20168 0.88709,0.19498 2.24367,0.37722 3.01459,0.40494 1.62128,0.0583 2.11311,0.29743 1.88696,0.91726 -0.0886,0.24295 -0.0111,0.75011 0.17222,1.12693 l 0.33223,0.68574 0.0645,-1.28695 c 0.0354,-0.70784 0.16718,-1.28697 0.29279,-1.28695 0.12564,2.2e-4 1.28511,0.0401 2.57665,0.0891 3.86092,0.14646 15.23237,-1.48158 19.86845,-2.84454 3.1142,-0.91554 5.40545,-1.88998 4.31694,-1.83596 -0.35427,0.0176 -2.88115,0.48305 -5.61518,1.03439 -12.81208,2.58361 -26.94027,2.05024 -37.73658,-1.42459 -1.0659,-0.34308 -2.07451,-0.56182 -2.24139,-0.48609 -0.4366,0.19856 -1.21041,1.76448 -1.97417,3.99701 -0.80908,2.3648 -0.55226,3.07028 1.48918,4.09089 1.9392,0.9695 3.03796,1.28144 6.26814,1.77958 10.48197,1.61643 26.65718,-1.24596 45.9751,-8.13575 2.22151,-0.79229 4.40846,-1.85717 4.2986,-2.09326 z m -49.44047,9.18688 -1.96346,-0.32446 -0.37257,-0.91347 c -0.27295,-0.66895 -0.4156,-0.79561 -0.53325,-0.47311 -0.2859,0.78362 -0.83315,0.77934 -1.83917,-0.0144 -1.88471,-1.48699 -1.954,-1.66072 -1.35224,-3.39011 0.30504,-0.87658 0.63585,-1.63159 0.73516,-1.6778 0.24655,-0.11475 2.8725,0.81375 2.98497,1.05542 0.0496,0.10668 -0.016,0.71533 -0.14569,1.35272 -0.12971,0.63737 -0.25306,1.36694 -0.27391,1.62129 l -0.0374,0.46253 0.42074,-0.5606 c 0.23142,-0.3083 0.4665,-1.02568 0.52238,-1.59414 0.0553,-0.5685 0.22858,-1.09043 0.38372,-1.15991 0.15591,-0.0679 0.93003,0.0518 1.722,0.26969 l 1.43989,0.39603 -0.41526,1.98288 c -0.56977,2.72055 -0.26132,2.99884 0.52802,0.47632 0.46166,-1.47552 0.80296,-2.08509 1.18206,-2.11133 l 0.53294,-0.0369 -0.14713,0.80586 c -0.081,0.44321 -0.24493,1.48139 -0.36449,2.30702 -0.11954,0.8256 -0.40321,1.57983 -0.63034,1.67603 -0.22699,0.0964 -1.29647,0.0289 -2.37638,-0.14954 z m 73.4939,-26.84184 c 9.59655,-5.73282 15.37173,-10.22137 14.78197,-11.48872 -0.23572,-0.50654 -0.12094,-0.57337 -2.68349,1.56266 -8.79267,7.32917 -18.24254,13.00316 -28.27617,16.97795 -8.02552,3.17927 -14.57048,5.00252 -20.2733,5.6476 -8.66085,0.97967 -16.34672,-0.53699 -27.07113,-5.34198 -4.77841,-2.1409 -12.5103,-6.29634 -14.22792,-7.64662 l -1.32102,-1.03849 -1.76085,-3.13838 c -0.96853,-1.72609 -1.7428,-3.29015 -1.72086,-3.47553 0.0924,-0.77869 0.84592,0.0653 2.03689,2.27997 0.69469,1.29216 1.50377,2.71229 1.79787,3.15589 0.79994,1.20644 8.88182,5.92915 14.84853,8.67681 3.11335,1.4337 12.70256,4.64861 15.29104,5.12655 8.24943,1.52311 14.62109,0.76868 26.47113,-3.13428 5.99332,-1.97395 14.4258,-5.82826 18.66648,-8.53204 7.79121,-4.96752 11.43694,-7.61334 15.7046,-11.39739 1.32515,-1.175 1.63975,-1.61052 1.45306,-2.0117 -0.39897,-0.85734 -1.29938,-0.45353 -2.60919,1.17007 -1.96352,2.43406 -8.82988,7.25289 -15.63279,10.97118 -6.19883,3.38811 -15.96676,7.64078 -21.37402,9.3056 -10.84971,3.34048 -14.14424,3.67849 -20.60154,2.1136 -7.69258,-1.86424 -14.61109,-4.37707 -21.07439,-7.65427 -2.44122,-1.23784 -7.43519,-4.1814 -8.54319,-5.03555 -1.73933,-1.34089 -7.99052,-12.90584 -14.32609,-26.5038 -4.11889,-8.8413 -10.58126,-24.04 -10.65885,-25.07007 -0.0488,-0.64653 2.29629,-4.72741 4.81517,-8.37962 5.39626,-7.82409 13.2444,-15.47463 21.77705,-21.22865 4.86833,-3.28302 10.31703,-6.19818 20.56472,-11.00256 l 9.1978,-4.31221 3.1959,-0.92201 c 7.60074,-2.19281 15.17492,-3.47377 22.44187,-3.79543 5.41885,-0.23984 15.52467,0.65885 18.41824,1.63799 l 1.64012,0.55495 1.21818,2.06946 c 0.67008,1.13816 4.52598,8.98297 8.5688,17.43283 l 7.3506,15.36337 0.40632,-0.18907 0.40633,-0.18908 -4.79694,-10.12565 c -2.63822,-5.56912 -5.33416,-11.1361 -5.99081,-12.37117 -0.65669,-1.23502 -2.40718,-4.64682 -3.89018,-7.58169 l -2.6964,-5.33608 -1.85221,-0.62103 c -4.14777,-1.39069 -12.32663,-2.17435 -18.81315,-1.80263 -13.79386,0.79048 -31.26545,5.86048 -43.41566,12.59856 -16.45142,9.1234 -28.61829,19.26083 -35.73073,29.77087 -2.13035,3.14803 -3.99606,6.99616 -4.0759,8.40676 -0.0326,0.57604 1.87518,5.09362 7.22787,17.11545 3.99969,8.98302 7.53983,16.91262 7.86703,17.62126 0.46971,1.01925 0.50073,1.33233 0.1446,1.49805 l -0.45033,0.20957 -6.21378,-13.83276 c -3.41761,-7.60798 -7.03153,-15.79504 -8.03101,-18.19338 l -1.81727,-4.36064 0.76821,-1.98867 c 2.60615,-6.74663 9.12403,-14.90981 17.70617,-22.1758 11.37951,-9.63435 26.5401,-18.38186 39.0983,-22.55937 14.93268,-4.96737 28.83037,-6.61116 40.76185,-4.82117 3.4721,0.52086 6.67898,1.40708 7.33856,2.02798 0.92029,0.86631 6.30268,11.24932 12.74936,24.59445 l 5.71885,11.83862 0.40146,-0.18682 0.40146,-0.18682 -2.61206,-5.70489 c -3.00702,-6.56777 -10.02614,-20.76741 -13.50168,-27.31435 l -2.37805,-4.47955 -1.82948,-0.56637 c -3.31487,-1.02622 -9.4107,-1.76341 -15.1077,-1.82704 -17.05691,-0.19049 -37.62939,5.4768 -53.68372,14.78873 -2.71178,1.5729 -4.98103,2.93542 -5.04279,3.02785 -0.0618,0.0924 -1.26176,0.92765 -2.66664,1.85607 -7.77594,5.13877 -17.26825,13.95023 -22.58292,20.96318 -2.83209,3.73705 -5.88137,8.64745 -6.72204,10.82483 l -0.62041,1.60688 0.77801,2.10953 c 1.76945,4.79796 11.16787,25.9779 14.8475,33.45977 4.70966,9.57632 9.17349,18.06112 10.05622,19.11482 0.59841,0.71432 4.56769,3.3194 7.13806,4.68477 0.63655,0.33814 2.42155,1.28704 3.96666,2.10863 13.58289,7.22261 26.58266,9.8501 36.2722,7.33127 8.43458,-2.19263 23.30563,-8.65927 32.38159,-14.08109 z m -25.64688,-2.05695 c -0.58557,-1.25835 -0.64813,-2.17511 -0.24938,-3.65412 l 0.29813,-1.10574 0.49163,0.65585 c 0.27036,0.36075 0.71874,0.95798 0.99647,1.32719 l 0.50492,0.67127 0.20966,-0.83427 0.20964,-0.83425 0.36049,0.34875 c 0.19829,0.19178 0.46931,0.58257 0.60229,0.86834 0.33912,0.72873 0.69785,0.46212 0.69007,-0.51279 -0.0101,-1.25772 0.36461,-1.15319 0.88552,0.24698 0.25862,0.69528 0.57349,1.21258 0.69781,1.15046 0.12496,-0.0627 0.36246,-0.7796 0.52743,-1.59356 l 0.29998,-1.47988 0.53958,0.80531 0.5396,0.8053 0.2063,-0.71057 c 0.11349,-0.39081 0.22261,-1.2001 0.24264,-1.79845 0.0487,-1.46038 0.47403,-1.58995 0.70469,-0.2145 0.3405,2.03035 0.85038,1.37472 1.64483,-2.11497 l 0.25162,-1.10525 0.13123,0.76283 c 0.43793,2.546 1.32725,2.72943 1.62834,0.33581 0.23407,-1.86028 0.36311,-1.78871 0.84057,0.466 0.54392,2.5683 1.08759,1.98946 1.29482,-1.37844 l 0.0847,-1.37909 0.50073,1.04313 0.50064,1.04318 0.23806,-0.50231 c 0.13085,-0.27635 0.20434,-1.29253 0.16309,-2.25832 -0.0412,-0.96578 0.0158,-1.79818 0.12658,-1.84974 0.11077,-0.0515 0.44426,0.60888 0.74101,1.46764 0.90689,2.62453 1.27534,1.69405 0.95983,-2.4239 l -0.1219,-1.59099 1.05597,2.06258 c 0.58084,1.13437 1.15293,2.01742 1.27153,1.96223 0.11849,-0.0551 0.215,-1.17517 0.2146,-2.4889 l -8.6e-4,-2.38862 0.59677,0.87568 0.59679,0.87568 -0.12875,-1.75256 c -0.0708,-0.96394 -0.19375,-2.27844 -0.27321,-2.92115 -0.0794,-0.64271 -0.0749,-1.20088 0.01,-1.2404 0.0851,-0.0396 0.62406,1.15546 1.19791,2.6556 l 1.04355,2.72741 0.22008,-0.60234 c 0.18871,-0.51646 -0.15954,-3.17587 -0.83007,-6.33907 -0.10226,-0.48264 -0.0599,-0.99665 0.0949,-1.14228 0.20225,-0.19142 0.51368,0.23691 1.12055,1.541 1.22264,2.62737 1.52907,1.90498 0.75282,-1.77464 -0.35438,-1.67982 -0.52844,-3.10813 -0.38679,-3.17406 0.34986,-0.1628 1.34996,0.84639 1.80255,1.819 0.20349,0.43725 0.49489,0.73688 0.64754,0.66585 0.40408,-0.18804 0.25626,-1.25519 -0.54115,-3.90639 -0.38828,-1.29071 -0.89635,-3.86022 -1.12917,-5.70997 -0.23285,-1.84971 -0.49691,-3.52127 -0.58685,-3.71455 -0.0899,-0.19327 0.0408,-0.36557 0.29087,-0.38286 0.5417,-0.0375 0.62776,-0.87545 0.24417,-2.37711 -0.1579,-0.61858 -0.12774,-1.07845 0.0694,-1.05505 0.19223,0.0229 0.37777,-0.17606 0.41226,-0.44189 0.0497,-0.38228 0.10978,-0.38463 0.28747,-0.0112 0.12511,0.25896 0.4076,0.38702 0.63107,0.28303 0.22349,-0.10401 0.48808,-0.0134 0.58796,0.20123 0.24974,0.53665 0.9068,0.57133 1.0942,0.0577 0.10897,-0.29879 -0.29814,-0.82007 -1.3902,-1.77947 -1.84131,-1.61782 -3.41763,-4.24147 -3.74401,-6.23166 l -0.22213,-1.35443 -1.32502,-1.30357 c -0.72878,-0.71695 -1.50392,-1.38833 -1.72259,-1.49194 -0.21874,-0.1036 -1.11313,-0.75747 -1.98775,-1.45301 -1.03243,-0.82105 -2.12692,-1.37596 -3.12033,-1.58201 l -1.53011,-0.31739 -1.37045,0.77291 c -0.7538,0.42496 -1.40997,0.68793 -1.45834,0.584 -0.26015,-0.55906 0.46797,-2.18564 1.21879,-2.72282 0.95253,-0.68144 0.95899,-0.81452 0.0645,-1.3328 -0.83636,-0.48458 -2.70769,-1.838 -2.79207,-2.01931 -0.0372,-0.0801 0.21209,-0.18159 0.55411,-0.2256 0.77136,-0.0995 0.70893,-0.23422 -0.81153,-1.75383 -0.76952,-0.76863 -1.93269,-1.4927 -3.13156,-1.94935 l -1.90726,-0.72653 1.0391,-0.2456 c 0.57157,-0.13494 1.44653,-0.23061 1.94448,-0.21229 1.45042,0.0534 1.66118,-0.24509 0.49397,-0.69954 -0.59479,-0.23155 -1.11794,-0.49943 -1.16253,-0.59526 -0.11925,-0.25625 1.70789,-0.44243 3.53951,-0.36066 0.87919,0.0393 1.56989,0.01 1.53485,-0.0656 -0.035,-0.0752 -0.5268,-0.4552 -1.09282,-0.84428 -1.21553,-0.83554 -1.18576,-1.20701 0.10447,-1.30347 1.27315,-0.0952 1.23904,-0.54067 -0.0888,-1.15891 l -1.09904,-0.51171 0.14564,-0.55383 c 0.11632,-0.4423 -0.005,-0.64747 -0.60392,-1.01893 -0.41233,-0.2558 -0.78005,-0.53028 -0.81717,-0.61003 -0.13458,-0.28923 0.65745,-0.46882 1.87453,-0.4251 1.64944,0.0593 1.40228,-0.30296 -0.81725,-1.19779 -1.00397,-0.40476 -1.86065,-0.8117 -1.90374,-0.9043 -0.14978,-0.32186 1.67972,-0.30135 3.06424,0.0344 1.57765,0.38253 1.65677,0.23132 0.28623,-0.54695 -1.08636,-0.61694 -1.11295,-0.96992 -0.0686,-0.91153 1.33765,0.0748 1.18149,-0.37341 -0.53287,-1.52934 -0.93675,-0.63157 -1.6819,-1.20668 -1.65586,-1.27797 0.026,-0.0711 0.62572,-0.0969 1.33264,-0.057 0.70695,0.04 1.31902,-0.0197 1.3602,-0.13247 0.0409,-0.11282 -0.3971,-0.52952 -0.97399,-0.92602 -0.57684,-0.39652 -1.01503,-0.81351 -0.97377,-0.92666 0.0915,-0.25012 2.54406,0.12273 2.67968,0.40741 0.0528,0.11122 0.21839,0.14553 0.36728,0.0762 0.42622,-0.19832 -0.0254,-0.8884 -1.16378,-1.77833 l -1.0465,-0.81807 0.41183,-0.19165 c 0.45972,-0.21394 0.24189,-0.94941 -0.3003,-1.01365 -0.58292,-0.0691 -0.59938,-0.49303 -0.0338,-0.86762 l 0.53475,-0.35422 -2.11983,-1.28158 c -1.16591,-0.70488 -2.14267,-1.3307 -2.17059,-1.39071 -0.0279,-0.06 0.26213,-0.0917 0.64469,-0.0702 1.36957,0.0765 1.17829,-0.45609 -0.40777,-1.13538 -0.90805,-0.38893 -1.3707,-0.71046 -1.05769,-0.73508 0.9971,-0.0784 0.36501,-0.52039 -0.97702,-0.68322 l -1.30973,-0.15884 1.01665,-0.63795 1.01661,-0.63793 -1.01563,-0.23693 c -0.55858,-0.13018 -1.69157,-0.0998 -2.51775,0.0678 -1.61919,0.3284 -2.01334,0.13968 -1.16847,-0.55951 0.93295,-0.77204 -0.14678,-0.76432 -2.04717,0.0146 l -1.79893,0.73731 0.78786,-1.31666 c 0.43329,-0.72415 0.73251,-1.43559 0.66487,-1.58093 -0.14565,-0.313 -1.15284,0.45518 -2.11604,1.61364 -0.82888,0.99703 -1.42673,1.01488 -1.37227,0.0409 0.0557,-0.99479 -0.3305,-0.98108 -1.17512,0.0417 -0.92131,1.11564 -1.0436,1.17435 -1.089,0.52198 l -0.0361,-0.52067 -1.00763,0.68063 c -1.09407,0.73908 -1.42559,0.6063 -0.81775,-0.32763 0.21137,-0.32474 0.29826,-0.77537 0.19312,-1.00142 l -0.19125,-0.41098 -0.60689,0.78518 c -0.73697,0.95352 -1.14923,1.17662 -1.18621,0.64205 -0.0344,-0.49964 -2.10707,-0.25431 -3.5585,0.42106 -1.18791,0.5528 -1.9397,1.76229 -1.95549,3.14604 -0.0115,1.00252 -0.75489,1.7587 -1.06787,1.08615 -0.30035,-0.64544 -0.82441,-0.24338 -1.65205,1.26744 -0.57055,1.04152 -0.79523,1.26326 -0.94781,0.93538 -0.25993,-0.55855 -0.75908,-0.31312 -1.12497,0.55321 -0.21298,0.50425 -0.40806,0.64469 -0.73153,0.52664 -0.64516,-0.23539 -1.20904,0.82472 -1.70988,3.21459 -0.23152,1.10471 -0.3904,2.07417 -0.35308,2.15436 0.0373,0.0802 0.39622,-0.10459 0.79744,-0.41082 0.95685,-0.73005 1.00608,-0.5223 0.16597,0.70013 -0.37669,0.54799 -0.80471,1.88799 -0.9511,2.97776 l -0.26621,1.98138 -1.04507,0.26697 -1.04509,0.26694 0.55351,0.75461 0.5535,0.75459 -0.53499,0.24894 c -1.33931,0.62325 0.90046,1.51333 2.85611,1.13509 1.08111,-0.20912 2.17504,-1.36901 1.56419,-1.65849 l -0.46082,-0.21836 1.274,-0.62843 c 1.42278,-0.70194 2.55694,-1.73507 2.36278,-2.1523 -0.0702,-0.15073 -0.76873,-0.35642 -1.55238,-0.45691 -1.40754,-0.18057 -1.9844,-0.80959 -0.98261,-1.07154 0.28416,-0.0742 1.63347,-1.44367 2.99853,-3.04309 l 2.48194,-2.908 2.44627,-1.11661 2.44628,-1.11661 3.5054,0.0971 c 2.58024,0.0714 3.68418,-0.0327 4.18282,-0.3946 0.8445,-0.613 1.04415,-0.26747 0.42358,0.73303 -0.62653,1.01 -0.3833,1.40834 1.03846,1.70048 0.93002,0.19108 1.6656,0.0616 3.42658,-0.60338 l 2.24229,-0.84677 -0.71897,0.75566 c -0.75325,0.7916 -0.56281,1.27784 0.33646,0.85936 0.28917,-0.13456 0.5825,-0.12279 0.65183,0.0263 0.0693,0.14894 0.008,0.32584 -0.13635,0.39298 -0.14428,0.0671 -0.12115,0.25874 0.0513,0.42564 0.34314,0.33205 -0.58836,1.14245 -2.14687,1.8677 -1.23863,0.57639 -1.19512,1.10957 0.0862,1.05612 l 1.06541,-0.0445 -1.03174,0.7181 -1.03176,0.7181 -1.62791,-0.06 c -0.89532,-0.033 -2.2651,-0.31389 -3.04388,-0.62426 -0.7788,-0.31034 -2.15977,-0.56925 -3.06885,-0.57537 l -1.65291,-0.0111 -2.30828,1.06956 c -1.82785,0.84598 -2.47731,1.29411 -3.12187,2.14333 -1.12865,1.48704 -1.56053,2.65546 -1.23784,3.34893 l 0.27365,0.58807 1.1887,-1.51757 1.18866,-1.51756 2.89249,-1.21998 2.89249,-1.21999 1.76446,0.0738 c 1.66882,0.0699 2.42352,0.41509 1.67183,0.7649 -0.18725,0.0871 -0.53746,0.77976 -0.77821,1.53914 -0.24075,0.7594 -0.8889,1.91371 -1.44035,2.56516 l -1.00263,1.18449 -3.89948,1.75439 -3.89946,1.75439 0.29614,0.41663 c 0.16291,0.22912 0.89715,0.4335 1.63177,0.45414 l 1.33564,0.0376 3.56341,-1.65823 c 1.95988,-0.91204 3.5517,-1.55986 3.53744,-1.43943 -0.0437,0.36722 -2.09395,1.92118 -3.23594,2.4526 -2.13548,0.99375 -2.19676,1.55737 -0.25031,2.30218 1.09492,0.41899 3.43169,2.65856 3.26128,3.12565 -0.0293,0.0803 -0.63581,-0.25691 -1.34779,-0.7494 -1.31844,-0.91202 -2.12897,-0.91976 -2.06665,-0.0198 0.0271,0.39291 -0.23496,0.37139 -1.22157,-0.10015 -2.43116,-1.16206 -5.12164,-0.68794 -6.85015,1.20714 -0.43888,0.48117 -1.18686,1.86728 -1.6622,3.08031 -0.47536,1.21302 -1.08796,2.30616 -1.36136,2.42915 -0.27353,0.12269 -1.15275,0.0225 -1.95414,-0.22343 -3.06817,-0.94145 -7.50297,1.17164 -8.37496,3.99067 -0.13275,0.42919 -0.77531,1.43777 -1.42783,2.24126 -0.65253,0.80351 -1.34434,1.9893 -1.53738,2.63511 -0.26617,0.89048 -0.405,1.06268 -0.57459,0.71272 -0.4049,-0.83716 -0.19635,-2.62266 0.46065,-3.93289 0.64249,-1.28129 0.57862,-1.91308 -0.12034,-1.19057 -0.26652,0.27556 -0.37453,0.24361 -0.39965,-0.11828 l -0.0343,-0.49588 -1.6183,0.53938 c -3.03787,1.01271 -3.18102,0.35958 -0.24287,-1.10794 2.49258,-1.24489 3.58998,-2.91177 2.3149,-3.516 -0.6875,-0.32579 -2.59071,0.57195 -4.98028,2.34923 -1.36109,1.0123 -2.00848,1.35834 -2.36559,1.26438 -0.27039,-0.0711 -0.82562,0.1157 -1.23382,0.41518 -0.89502,0.65662 -2.09375,0.64572 -2.40442,-0.0219 -0.12441,-0.26733 0.10668,-1.56222 0.51355,-2.87748 1.32294,-4.27674 3.19212,-5.75189 7.66281,-6.04741 1.0029,-0.0662 0.0812,-0.48313 -1.56438,-0.70744 -2.08746,-0.28459 -4.27589,0.74302 -5.9216,2.78049 -1.67311,2.07138 -1.95578,3.38108 -1.59568,7.39332 0.0359,0.39808 -0.0484,0.52898 -0.22726,0.35291 -0.7467,-0.73539 -1.42522,0.85685 -1.97051,4.62434 -0.32467,2.24295 0.22498,5.66232 0.86248,5.36566 0.12368,-0.0575 0.24466,-0.45452 0.26856,-0.88201 0.0239,-0.42747 0.21118,-1.03493 0.41616,-1.34985 l 0.3727,-0.5726 0.24269,0.5215 c 0.13347,0.28681 0.42002,0.50433 0.63686,0.48335 0.29474,-0.0286 0.37032,0.23736 0.29971,1.05405 -0.29096,3.36367 0.0537,4.04114 0.90788,1.78369 0.68111,-1.79997 0.88735,-1.90244 0.94436,-0.46928 0.0465,1.16612 0.41229,1.34706 0.67829,0.33549 0.20815,-0.79145 0.44485,-0.62225 0.5166,0.36928 0.033,0.4565 0.17931,0.84406 0.32495,0.86137 0.51225,0.0607 0.78335,-0.77392 0.8201,-2.52495 0.0204,-0.97268 0.16812,-1.88495 0.32861,-2.02727 0.40235,-0.35709 0.62899,0.23978 0.36533,0.96228 -0.11946,0.32743 -0.11661,0.79746 0.007,1.04448 l 0.22238,0.44965 0.17268,-0.83658 c 0.095,-0.46011 0.38516,-1.73443 0.6448,-2.8318 0.25964,-1.09735 0.40761,-2.1338 0.32877,-2.30319 -0.0788,-0.16939 0.14907,-0.39668 0.50645,-0.50506 0.49162,-0.14898 0.76569,-3.6e-4 1.12595,0.61101 0.55535,0.9422 0.30655,1.9061 -0.67831,2.62862 -0.47707,0.34999 -0.72694,1.01435 -0.86929,2.31135 -0.10986,1.00109 -0.30446,2.15278 -0.43236,2.55935 -0.69562,2.21083 -1.35483,5.35184 -1.32014,6.29024 l 0.0396,1.072 0.84073,0.21028 0.84073,0.21032 -0.221,1.37674 c -0.24931,1.55354 -0.42139,4.63078 -0.27631,4.94246 0.0525,0.11291 0.32964,0.0964 0.61575,-0.0368 0.62056,-0.28878 1.76621,1.00212 1.51077,1.70223 -0.0876,0.24033 -0.0507,0.67142 0.0829,0.95785 l 0.24234,0.52076 0.24938,-0.52629 c 0.33023,-0.69686 0.40947,-0.4605 0.40717,1.21467 -8.5e-4,0.76882 0.0836,2.20176 0.18824,3.18432 l 0.19016,1.78644 0.48268,0.127 c 0.27336,0.0719 0.56644,0.45957 0.67579,0.89391 0.10625,0.42181 0.37348,0.78772 0.59151,0.81423 0.27662,0.033 0.36399,0.61342 0.2856,1.89902 -0.062,1.01847 0.0659,2.43265 0.28424,3.14261 l 0.39704,1.29085 0.26307,-0.90043 0.2631,-0.90039 0.24506,0.52663 c 0.3269,0.70246 0.72084,0.81553 0.97474,0.27977 0.28522,-0.60193 1.58556,1.28388 1.53303,2.22331 -0.0552,0.98555 0.2906,1.55882 0.79766,1.32285 l 0.44094,-0.20518 0.32225,1.13387 c 0.44987,1.58244 1.73392,3.51153 2.1945,3.2972 0.27104,-0.12613 0.57108,0.26121 1.12583,1.45335 0.41599,0.89392 0.84748,1.58214 0.95887,1.52937 0.11134,-0.0527 0.19168,-0.64625 0.17848,-1.31885 l -0.024,-1.22292 0.62479,1.2746 c 0.67397,1.37532 1.08944,1.50053 1.07418,0.32398 l -0.01,-0.737 0.60274,0.78673 c 0.5768,0.7529 1.39167,1.17471 1.11318,0.57623 -0.28913,-0.62129 0.34075,-0.44676 1.08346,0.30024 1.06288,1.06902 1.40424,0.79902 0.75913,-0.60044 -0.38856,-0.84487 -0.41054,-1.07721 -0.0799,-0.86905 0.24846,0.15627 0.62556,0.64809 0.83813,1.09292 0.21367,0.44432 0.57858,0.93221 0.81336,1.08307 0.3248,0.2087 0.38721,0.022 0.26107,-0.78057 -0.10916,-0.6947 -0.0671,-0.86444 0.12347,-0.49714 0.4259,0.82094 1.64036,2.00457 1.92236,1.87334 0.13443,-0.0626 0.0742,-0.5165 -0.13389,-1.00873 -0.24483,-0.57956 -0.24339,-0.72544 0.004,-0.41383 0.67201,0.84546 1.13341,0.82007 0.76288,-0.042 -0.25653,-0.59805 0.0392,-0.38583 1.12943,0.80909 1.00536,1.10169 1.4957,1.46786 1.53422,1.14573 l 0.0566,-0.47344 0.40805,0.25723 0.40804,0.25723 0.0707,-0.5177 c 0.039,-0.28471 0.14357,-0.4817 0.23256,-0.43774 0.0889,0.0438 0.61973,0.34877 1.17942,0.67738 0.5597,0.3286 1.13122,0.54463 1.27007,0.48001 0.13892,-0.0647 0.0685,-0.51386 -0.15624,-0.99832 l -0.40872,-0.88081 1.02354,0.67711 c 0.56293,0.37237 0.99908,0.54016 0.96916,0.37284 -0.0299,-0.16733 -0.19866,-0.82798 -0.37486,-1.46817 l -0.32044,-1.16394 0.68571,0.49964 c 0.37716,0.2748 0.75725,0.64209 0.84469,0.81616 0.0878,0.1739 0.45405,0.59664 0.81454,0.93913 l 0.65557,0.62263 -0.0454,-0.63794 -0.0454,-0.63791 0.90034,1.06397 c 1.76484,2.08565 2.67012,2.17978 1.73997,0.18099 z m 2.3341,-16.2291 c -0.0771,-0.16563 -0.11169,-1.1923 -0.0769,-2.28144 0.0349,-1.08912 -0.0518,-1.99238 -0.19258,-2.00725 -0.14064,-0.0141 -0.8685,0.8352 -1.61725,1.88895 -0.74876,1.05376 -1.41412,1.94044 -1.47853,1.97042 -0.0644,0.0299 -0.18549,-0.30111 -0.26876,-0.7359 l -0.1517,-0.79036 -0.50234,0.80982 c -0.64761,1.04403 -0.94398,0.9152 -0.88965,-0.38676 0.0528,-1.26449 -0.0424,-1.23285 -1.16269,0.38667 l -0.8823,1.27544 -0.15229,-0.79399 c -0.16362,-0.85235 -0.51963,-0.87711 -0.84703,-0.0589 l -0.20247,0.50616 -0.17099,-0.82668 c -0.20106,-0.97152 -0.65653,-0.89227 -1.13132,0.19691 l -0.31532,0.72343 -0.17435,-0.87539 -0.17432,-0.87539 -0.49413,0.79658 -0.49413,0.7966 -0.56831,-0.14953 c -0.32628,-0.0858 -0.64206,-0.44227 -0.74146,-0.837 l -0.17318,-0.68752 -0.90272,0.62025 c -0.4965,0.34114 -1.09835,0.78678 -1.33745,0.99035 -0.32561,0.2771 -0.46884,0.23348 -0.57097,-0.175 -0.091,-0.36428 -0.47529,-0.56543 -1.1581,-0.60631 -0.77381,-0.0463 -1.07158,-0.2277 -1.2266,-0.74735 -0.11265,-0.37741 -0.18503,-0.74436 -0.1608,-0.81548 0.0242,-0.0712 1.42009,-0.46589 3.10215,-0.8772 6.34297,-1.55133 9.53328,-2.6865 16.77612,-5.96927 l 7.07576,-3.20701 1.10651,-1.12076 c 0.60861,-0.61643 1.17847,-1.09453 1.26636,-1.06246 0.16573,0.0604 -1.02524,2.318 -1.89459,3.59112 -0.27347,0.40045 -0.69006,1.69737 -0.92578,2.8821 -0.53614,2.69429 -0.73643,3.02649 -1.0399,1.72452 l -0.23383,-1.00341 -0.82805,2.18657 c -0.8797,2.32292 -1.02914,2.35878 -1.22863,0.29487 -0.0691,-0.71558 -0.2114,-1.26021 -0.31605,-1.21027 -0.10458,0.0497 -0.42763,1.01484 -0.71767,2.14421 -0.6838,2.66245 -1.03544,2.89072 -1.24466,0.80806 -0.21556,-2.14574 -0.68926,-1.88177 -1.42777,0.79546 -0.73519,2.66533 -1.00288,3.24547 -1.25119,2.71187 z m -10.50787,-10.02243 c -4.06963,1.63945 -8.14471,2.52979 -9.43096,2.0605 -0.42818,-0.15624 -1.26208,-0.20302 -1.8531,-0.10386 -1.0383,0.17412 -4.34754,-0.65967 -4.20194,-1.0587 0.0394,-0.10792 1.16823,-0.54825 2.50998,-0.97548 1.34116,-0.42852 5.18342,-2.05058 8.53841,-3.60448 l 6.0999,-2.82545 3.09587,-2.32864 c 5.4331,-4.08663 9.93499,-8.94925 12.30726,-13.29336 1.39376,-2.55227 3.27769,-4.71944 4.67949,-5.38304 2.38663,-1.13019 4.85213,0.49545 6.7838,4.4721 l 1.00194,2.06255 -0.21379,1.03088 c -0.29878,1.44045 -1.2241,2.66839 -2.66905,3.54192 -0.67824,0.41002 -2.37238,1.64345 -3.76477,2.74098 -7.80503,6.15221 -15.20406,10.57028 -22.88307,13.66379 z m 10.41739,-8.00796 c 0.085,-0.23297 -0.0701,-0.70073 -0.34474,-1.03932 l -0.49931,-0.61562 -0.87489,0.40795 c -0.48104,0.22469 -1.8305,1.06312 -2.99854,1.86376 -1.16806,0.8006 -2.78775,1.86111 -3.59931,2.35669 -0.81156,0.49562 -1.43091,0.99706 -1.37633,1.11436 0.33311,0.71583 9.32375,-3.07592 9.69303,-4.08799 z m 4.64323,-3.25832 c 0.52155,-0.58403 1.10845,-1.1364 1.3042,-1.22749 0.54995,-0.25592 0.49463,-0.7711 -0.18484,-1.72086 -0.7079,-0.9895 -1.13641,-0.90917 -2.47539,0.46413 -0.46257,0.47442 -1.45132,1.38354 -2.19719,2.02028 l -1.35613,1.15769 0.41666,0.89539 c 0.22917,0.49246 0.53773,0.93954 0.6856,0.99352 0.4347,0.15859 2.77968,-1.432 3.80709,-2.58266 z m 6.47368,-2.86731 c 1.80897,-1.38043 2.23656,-2.14206 1.37845,-2.45518 -0.50032,-0.18253 -4.45531,3.43732 -4.38904,4.01715 0.0578,0.50615 0.8159,0.11276 3.01061,-1.56191 z m 5.30488,-4.91847 c 0.48101,-1.25696 0.55556,-2.40819 0.16518,-2.55064 -0.2419,-0.0882 -3.38499,3.70525 -3.43761,4.14883 -0.0217,0.18749 0.12324,0.49917 0.32319,0.69274 0.62274,0.60244 2.35761,-0.74518 2.94909,-2.29088 z m -6.07914,3.15403 c 0.71502,-0.71761 1.35346,-1.43075 1.41874,-1.58474 0.19139,-0.45148 -1.91922,-3.12512 -2.43861,-3.08916 -0.25796,0.018 -0.69348,0.38662 -0.96776,0.8193 -0.27428,0.43274 -1.03016,1.47699 -1.6798,2.32055 l -1.18115,1.53375 0.36603,0.78658 c 0.20134,0.43264 0.5298,0.94498 0.7298,1.13858 0.52103,0.50409 2.1808,-0.34725 3.75265,-1.92487 z m 3.42521,-3.58625 c 0.50038,-0.44481 1.08537,-1.23843 1.29994,-1.76368 0.21459,-0.52526 0.51847,-0.93981 0.67534,-0.92122 0.57742,0.0685 0.57337,-1.05076 -0.007,-1.81089 -0.85063,-1.1149 -2.45733,-1.23743 -4.00242,-0.30524 -0.66813,0.40316 -1.41283,0.99679 -1.65485,1.31927 l -0.44005,0.58628 0.93165,1.59484 c 1.54283,2.64133 1.64292,2.68206 3.19707,1.30058 z m -31.83037,15.28297 c -0.0721,-0.15503 0.23309,-0.53475 0.6783,-0.84392 3.05372,-2.12064 4.38046,-2.9359 5.40357,-3.32052 l 1.16788,-0.43903 -1.26789,1.17031 c -1.52125,1.40419 -5.78683,3.85229 -5.98189,3.43312 z m -9.76873,3.56136 c -1.02369,0.36777 -2.32158,0.235 -2.15237,-0.22032 0.0552,-0.14871 2.68015,-0.73783 4.59282,-1.03076 l 0.92288,-0.14131 -1.09269,0.48453 c -0.60099,0.26653 -1.62282,0.67492 -2.27069,0.90772 z m 16.40452,-10.45394 c -2.29455,-0.6204 -3.62551,-2.63583 -4.73205,-7.16557 -0.39468,-1.61569 -0.48652,-2.67726 -0.27403,-3.16789 l 0.31954,-0.73792 0.59661,1.7677 c 0.32814,0.97224 0.80992,2.67588 1.07064,3.78583 0.58512,2.49113 2.10107,4.58753 3.60273,4.98255 0.62698,0.1649 0.97569,0.57176 0.61593,0.71864 -0.1143,0.0463 -0.65396,-0.0358 -1.19937,-0.18333 z m 10.63332,-5.05356 c 0.15805,-0.43316 6.30059,-7.6987 6.45968,-7.64065 0.25897,0.0944 -0.92343,2.15035 -2.08924,3.63256 -1.46323,1.86033 -4.65472,4.78724 -4.37044,4.00809 z m -21.28975,-7.6704 c -0.35468,0.0168 -1.01442,-0.12696 -1.46597,-0.31928 -1.1774,-0.50144 -2.49162,-0.49341 -3.59915,0.022 l -0.96154,0.44745 -0.24889,-0.53481 c -0.28039,-0.60256 0.60882,-1.93948 1.59525,-2.39853 0.78796,-0.36667 1.83443,-0.18693 3.92667,0.67439 0.89954,0.37032 2.11189,0.631 2.69414,0.57931 0.58225,-0.0517 1.04342,0.0344 1.0248,0.19141 -0.0429,0.36309 -2.11493,1.29802 -2.96533,1.338 z m 7.69103,-5.07154 c -0.0422,-0.0907 0.0476,-0.54753 0.19969,-1.01507 0.15208,-0.46754 0.29192,-1.64214 0.3108,-2.61023 0.0188,-0.9681 0.26373,-2.16426 0.54421,-2.65812 l 0.50993,-0.89793 1.3689,-0.26165 c 1.763,-0.33701 2.35564,0.22653 1.83747,1.74703 -0.21922,0.64333 -0.75331,1.35019 -1.29824,1.71831 -0.50917,0.34403 -1.24666,1.20461 -1.63881,1.91254 -0.70848,1.27899 -1.68701,2.38084 -1.83393,2.06512 z m -11.13746,0.85218 -1.52601,-0.0926 1.29963,-0.39393 c 1.50779,-0.45694 1.52984,-0.45517 1.65645,0.13323 l 0.096,0.44578 z m 21.30311,-11.42916 c -0.68423,-0.14834 -1.99255,-1.30861 -1.65348,-1.4664 0.31863,-0.14827 2.19825,0.93701 2.23891,1.29274 0.0209,0.18263 -0.21756,0.25344 -0.58544,0.17364 z m -46.98821,84.41143 c -0.0292,-0.0627 -1.18822,-0.78215 -2.57578,-1.59897 -2.12339,-1.24997 -7.10792,-5.04732 -7.373,-5.61693 -0.22444,-0.48231 0.55109,-0.33775 1.30222,0.24282 0.46985,0.36317 1.94336,1.24126 3.27436,1.95129 3.42451,1.82681 3.34507,1.04803 -0.153,-1.5004 -3.52328,-2.56676 -6.55405,-5.14262 -6.67142,-5.67004 -0.0489,-0.21947 1.02237,0.2765 2.3805,1.10222 2.77044,1.68439 6.64745,3.40061 6.59231,2.91824 -0.0198,-0.17371 -1.19448,-1.31331 -2.61026,-2.53223 -7.50177,-6.45874 -11.39329,-10.63206 -14.86385,-15.94025 -1.98913,-3.04236 -8.44412,-16.92077 -9.82853,-21.13067 -2.34449,-7.13151 -3.58414,-12.32486 -4.62208,-19.36337 -1.24524,-8.44431 -1.43704,-12.80884 -0.81193,-18.47698 0.33855,-3.07018 1.83736,-10.47442 2.10078,-10.37833 0.10053,0.0367 0.0783,1.12113 -0.0492,2.40992 -0.23105,2.33423 -0.4496,7.71212 -0.32438,7.98118 0.25041,0.53813 0.8561,-0.63383 1.64734,-3.18752 1.09552,-3.53563 3.92922,-9.45128 4.69892,-9.80944 0.0838,-0.039 -0.31566,1.3703 -0.88768,3.1318 -1.01915,3.13845 -2.13938,9.0197 -1.74541,9.16347 0.10984,0.0401 1.38817,-2.15572 2.84106,-4.87943 2.6631,-4.99243 4.68502,-8.26684 5.0276,-8.14188 0.10222,0.0373 -0.28813,1.03981 -0.8673,2.22785 -1.27462,2.6147 -2.7717,6.93931 -2.44367,7.059 0.13053,0.0476 0.80654,-0.84742 1.5024,-1.98891 2.44177,-4.00536 6.7441,-9.24536 7.67863,-9.35217 0.1683,-0.0193 -0.4305,1.23321 -1.3306,2.78324 -1.64256,2.82848 -2.60206,5.07542 -2.22594,5.21262 0.11082,0.0404 1.39964,-1.30956 2.86396,-3.00005 6.06009,-6.996 12.70544,-13.27037 18.69817,-17.65431 1.79164,-1.31067 3.2159,-2.47244 3.16506,-2.58173 -0.14486,-0.31128 -2.89008,0.0979 -4.69959,0.70046 -0.90236,0.30043 -1.68489,0.45123 -1.73896,0.33502 -0.0541,-0.11616 0.75636,-1.00368 1.80103,-1.97206 1.04466,-0.96837 2.05452,-1.90536 2.24412,-2.08214 l 0.34468,-0.32154 -0.51433,-0.0394 c -0.70676,-0.0539 -4.68949,1.18932 -6.56544,2.04953 l -1.54197,0.70718 0.30568,-0.57877 c 0.16813,-0.31835 1.24616,-1.3478 2.39563,-2.28772 1.14944,-0.93992 2.28601,-1.92494 2.52567,-2.18894 0.43862,-0.4832 -2.67188,0.82437 -7.16254,3.01094 -1.18008,0.57473 -2.11286,0.96031 -2.07277,0.85703 0.15277,-0.39281 3.53759,-3.49963 4.56253,-4.18782 0.58995,-0.39621 1.08889,-0.85657 1.10864,-1.0232 0.0593,-0.49974 -2.40919,0.79462 -6.51855,3.41805 -2.13221,1.36124 -4.03318,2.49171 -4.22442,2.51216 -0.1913,0.0206 0.0406,-0.4613 0.515,-1.07062 0.83266,-1.0693 1.13062,-1.79665 0.78731,-1.92192 -0.27562,-0.10049 -4.81714,3.63154 -6.8569,5.63482 -1.05475,1.03588 -1.97724,1.86174 -2.04993,1.83521 -0.21617,-0.0788 2.95931,-4.67083 5.04875,-7.30089 1.06744,-1.34359 1.86277,-2.47139 1.76742,-2.50617 -0.48916,-0.17848 -6.42071,5.77855 -9.00824,9.04694 -0.89832,1.13468 -1.71107,2.03469 -1.80607,2.00004 -0.2742,-0.10012 1.15354,-2.8548 2.63485,-5.08378 3.25876,-4.90366 7.51964,-9.3239 14.77968,-15.3325 l 4.16352,-3.44582 4.10049,-2.06276 c 2.56911,-1.29236 4.75717,-2.22411 5.85857,-2.49543 1.31613,-0.32385 1.95555,-0.61818 2.5436,-1.17054 l 0.78543,-0.73807 4.33536,-1.12949 c 4.5871,-1.19512 10.2382,-2.20287 13.93492,-2.48506 3.36598,-0.25692 8.96871,-0.20148 9.1044,0.0901 0.066,0.14178 0.64075,0.26162 1.27734,0.26641 0.63659,0.005 1.2062,0.11247 1.26558,0.241 0.0595,0.1278 0.97018,0.29992 2.02382,0.38257 1.05364,0.0826 1.88841,0.2249 1.85511,0.31623 -0.0333,0.0914 -2.17974,0.21143 -4.76984,0.26696 -4.95183,0.10616 -8.33802,0.44081 -11.73416,1.15968 -2.94762,0.6239 -3.55489,1.02007 -1.43787,0.93808 2.67603,-0.10367 9.38199,0.13925 9.30976,0.33724 -0.0347,0.0953 -1.11153,0.28483 -2.39275,0.42112 -5.08635,0.54109 -12.91358,2.27881 -15.49246,3.4395 -0.91029,0.41047 0.48077,0.38184 2.59557,-0.0522 1.24088,-0.25467 3.09533,-0.57164 4.12107,-0.70439 1.9766,-0.25579 8.3452,-0.2969 8.25633,-0.0533 -0.0289,0.0791 -1.06572,0.31951 -2.30403,0.5342 -2.9553,0.51218 -7.09993,1.72027 -10.55778,3.07735 -3.22886,1.26722 -2.97646,1.52945 0.63798,0.66286 3.65337,-0.87587 8.45313,-1.33628 8.25448,-0.79182 -0.04,0.10911 -1.44825,0.53482 -3.12983,0.94585 -4.73486,1.15745 -11.36404,3.51098 -10.63677,3.77634 0.12165,0.0444 1.98939,-0.30597 4.1508,-0.77844 3.63402,-0.79441 7.42792,-1.20132 8.33363,-0.89382 0.23463,0.0796 0.0484,0.21891 -0.48899,0.36557 -0.47747,0.1302 -1.65832,0.45075 -2.62409,0.71233 -2.07606,0.5623 -7.96531,2.87596 -7.65487,3.00732 0.1185,0.0502 1.6148,-0.2397 3.32532,-0.644 4.46264,-1.05478 4.64713,-0.88039 0.91708,0.86697 -1.77277,0.83187 -3.13722,1.54213 -3.03089,1.58094 0.10639,0.0388 1.53851,-0.18416 3.18268,-0.49545 4.26677,-0.80782 4.39703,-0.55589 0.62126,1.20116 -1.74318,0.8112 -3.12166,1.5774 -3.06337,1.70266 0.0583,0.12529 0.81318,0.0735 1.67738,-0.11335 2.58556,-0.56127 2.6089,-0.3274 0.12537,1.25714 -1.28209,0.81799 -2.40549,1.60044 -2.49646,1.73878 -0.34608,0.52634 0.42316,0.59118 1.43363,0.12142 2.66448,-1.2399 12.49385,-3.87142 17.63834,-4.72212 1.46347,-0.24202 2.90587,-0.55403 3.20528,-0.69336 1.453,-0.67615 12.45609,-0.92752 16.49905,-0.37692 2.35078,0.32015 3.65741,0.41952 10.5908,0.80578 4.86999,0.27128 11.40657,1.44108 12.91817,2.31189 l 1.3324,0.76753 1.28555,2.65885 1.28542,2.65887 1.24087,0.85835 1.24088,0.85834 2.56863,4.40631 c 5.43865,9.32942 7.10966,12.52223 9.63888,18.41719 1.3938,3.24823 2.6969,6.43754 2.89608,7.08719 l 0.36212,1.18117 2.18355,-0.80003 c 1.20095,-0.44002 2.21917,-0.89793 2.2628,-1.01729 0.0976,-0.26759 -3.07121,-5.03207 -4.76273,-7.16091 -3.28396,-4.133 -4.08444,-5.3577 -5.53298,-8.46495 -2.61928,-5.61876 -3.07365,-9.31668 -1.54827,-12.6018 0.45837,-0.98716 0.81802,-2.01668 0.79924,-2.28783 -0.0186,-0.27119 -1.28032,-1.85521 -2.80349,-3.52015 -10.44367,-11.41585 -21.10539,-18.64215 -34.69205,-23.51365 -11.65109,-4.17747 -23.11811,-5.37429 -35.13745,-3.66731 -18.54193,2.6333 -35.62129,13.35561 -46.66567,29.29639 -6.31714,9.11775 -10.29126,18.69272 -12.36909,29.80107 -2.74999,14.70199 -1.74096,29.05655 3.10669,44.19605 1.27211,3.9728 6.50811,15.22058 8.63669,18.55464 6.65116,10.41395 14.09037,18.70756 21.72421,24.21931 1.82344,1.31647 5.6519,2.62633 5.26853,1.80248 z m 6.67313,-28.8756 c -0.21577,-0.91822 -0.64476,-2.01619 -0.95313,-2.43994 -1.59767,-2.19472 -2.05974,-3.15408 -1.91426,-3.97452 0.19183,-1.082 -0.0917,-1.69399 -0.56146,-1.20903 -0.25812,0.26687 -0.3655,0.23446 -0.38347,-0.11584 -0.0137,-0.26753 -0.036,-0.70251 -0.0494,-0.96658 -0.0141,-0.27831 -0.2361,-0.46528 -0.5265,-0.4454 l -0.50203,0.0349 0.0592,-1.56157 c 0.0325,-0.85884 0.36502,-2.36502 0.73893,-3.34709 0.37389,-0.98202 0.63488,-1.88201 0.57997,-1.99998 -0.25162,-0.54074 -1.24065,0.42796 -1.81021,1.7732 -0.34567,0.81631 -0.68328,1.3664 -0.75027,1.22244 -0.15456,-0.33213 0.34071,-2.90266 0.70656,-3.66699 0.15218,-0.31789 0.1592,-0.65524 0.0157,-0.74963 -0.35249,-0.23177 -1.05602,0.71589 -1.65667,2.23153 -0.61578,1.55376 -0.8494,1.15634 -0.43929,-0.7473 0.33435,-1.55163 0.21768,-2.21964 -0.34215,-1.95913 -0.19369,0.0901 -0.44414,0.39202 -0.55652,0.67088 l -0.20435,0.50703 -0.1367,-0.67753 c -0.16179,-0.80268 -0.70686,-0.95114 -1.02522,-0.27934 -0.16907,0.3568 -0.29248,0.40645 -0.49027,0.19717 -0.72315,-0.76495 -1.73999,2.57693 -1.50371,4.94178 0.14715,1.47264 0.42317,1.53204 0.94085,0.20243 0.56467,-1.45043 0.78953,-1.47774 0.77648,-0.0943 -0.0128,1.36109 0.39438,1.65489 0.83805,0.6046 0.40229,-0.95231 0.49567,-0.73129 0.34426,0.81528 -0.066,0.67985 -0.0326,1.82181 0.0754,2.53774 0.14191,0.94146 0.0465,1.40053 -0.34455,1.6587 -0.37776,0.24924 -0.45091,0.55 -0.24275,0.99731 0.23139,0.49723 0.47341,0.58204 1.08282,0.37943 l 0.78476,-0.26099 0.59577,1.21196 c 0.81605,1.66032 2.00834,2.86207 2.97974,3.00343 0.82957,0.12074 1.44072,0.61884 2.93644,2.39343 0.46636,0.55329 0.95625,0.95554 1.08869,0.89392 0.13244,-0.0616 0.0642,-0.86331 -0.1516,-1.78155 z m 70.34119,-45.79293 c -0.13518,-0.34492 -0.50073,-1.09585 -0.81179,-1.669 l -0.56611,-1.04187 0.58683,0.15432 c 0.85169,0.224 1.05481,-0.31838 0.53641,-1.43239 l -0.4533,-0.97411 0.70401,0.2178 c 1.0529,0.32572 1.12171,0.16474 0.50039,-1.17045 -0.40313,-0.86628 -0.45719,-1.27017 -0.18666,-1.39606 0.28083,-0.13068 0.22107,-0.44842 -0.22799,-1.21208 -0.88708,-1.50843 -0.27213,-1.51372 1.44283,-0.0124 0.8111,0.71005 1.56031,1.25117 1.66501,1.20245 0.30536,-0.14209 -0.52166,-2.61581 -1.34006,-4.00835 -0.41358,-0.70369 -0.66395,-1.32039 -0.55623,-1.37052 0.10754,-0.05 0.88879,0.51322 1.73589,1.25183 l 1.54017,1.34293 -0.2509,-1.20141 c -0.13805,-0.66075 -0.74516,-2.08363 -1.34927,-3.16188 l -1.0983,-1.96047 0.84621,0.43006 c 0.46542,0.23654 0.90281,0.54463 0.972,0.68463 0.0794,0.1608 0.17154,0.11796 0.24989,-0.11628 0.0737,-0.22057 -0.51701,-1.34115 -1.45799,-2.76528 -1.7579,-2.66039 -3.71841,-4.45273 -5.27237,-4.82001 l -0.99533,-0.23523 0.11417,0.47598 c 0.0627,0.26181 0.57539,0.77916 1.13899,1.14973 1.74169,1.14531 1.20591,1.40572 -0.81601,0.39724 -1.82978,-0.91301 -4.56158,-1.59229 -4.71483,-1.17233 -0.0398,0.10855 0.7401,0.68379 1.73276,1.27802 2.39666,1.43466 4.317,2.9686 5.11789,4.08807 0.80888,1.13065 0.41108,1.43281 -0.6293,0.47795 -0.9763,-0.89603 -2.67522,-1.67721 -3.15853,-1.4523 -0.52149,0.24267 -0.30906,0.59353 0.96009,1.58568 0.59412,0.46444 1.45954,1.50165 1.92319,2.30496 l 0.84299,1.46055 -2.24121,-1.7491 c -3.22941,-2.52031 -3.94938,-2.20925 -1.19742,0.51725 0.54852,0.54348 1.07616,1.25292 1.1726,1.57661 0.13365,0.44877 -0.24361,0.31201 -1.58915,-0.5761 -1.88123,-1.24163 -5.44933,-2.56111 -5.38419,-1.99104 0.0216,0.18821 0.81145,0.83305 1.75542,1.43301 2.20557,1.40176 4.06213,3.02259 4.91547,4.29131 l 0.67521,1.00397 -1.63572,-0.72141 c -0.89963,-0.39679 -1.68531,-0.58546 -1.74595,-0.41928 -0.0607,0.16625 0.47315,0.8374 1.18626,1.49155 0.71309,0.65415 1.38699,1.48763 1.49759,1.85219 l 0.20093,0.66289 -2.04008,-0.99135 c -2.63704,-1.2815 -4.83879,-1.84251 -4.68319,-1.19328 0.061,0.25441 1.68255,1.77532 3.60351,3.37971 1.92092,1.60442 3.89279,3.39824 4.38194,3.98622 1.1535,1.3866 1.20762,1.4153 1.98761,1.05233 0.49392,-0.22984 0.59898,-0.46649 0.41546,-0.93481 z m 10.25421,-15.56434 c -4.63532,-10.76074 -10.79199,-22.86551 -11.82037,-23.2408 -0.19357,-0.0707 0.72118,2.36999 2.0957,5.59091 4.43494,10.3923 7.93413,18.93062 8.94978,21.8382 0.55092,1.57703 1.16491,3.02532 1.36463,3.21834 0.39684,0.38389 1.09024,0.34257 1.90314,-0.11341 l 0.52266,-0.29319 z m -95.65351,42.82537 c 0.17903,-1.82147 0.68898,-3.57685 1.09388,-3.76527 0.12871,-0.0599 0.37575,0.19588 0.54908,0.56834 0.17334,0.37248 0.39238,0.64127 0.48685,0.59731 0.0945,-0.044 0.56479,-1.18966 1.04522,-2.54606 0.48046,-1.35637 1.18593,-2.98224 1.56774,-3.61303 0.73075,-1.20726 0.77367,-1.84081 0.0834,-1.23003 -0.22469,0.19874 -0.72258,0.61039 -1.10644,0.91469 -0.74383,0.58963 -0.83254,0.36785 -0.42852,-1.07081 0.23904,-0.85011 -0.25761,-1.04801 -0.74623,-0.29733 -0.56172,0.86298 -0.66923,0.80734 -0.6221,-0.32201 0.0907,-2.17596 -0.5276,-1.42663 -1.82371,2.21018 -0.96072,2.69543 -1.35722,4.39122 -1.38337,5.91646 -0.0368,2.14709 0.46827,4.70987 0.8874,4.50262 0.12316,-0.062 0.30203,-0.9003 0.39685,-1.86505 z m 87.59262,-51.25804 c -0.64432,-1.14504 -1.8574,-2.80496 -2.69587,-3.68863 -0.83846,-0.88367 -1.45283,-1.64002 -1.36529,-1.68075 0.0874,-0.0408 0.68177,0.26955 1.32047,0.68952 0.63871,0.42002 1.18757,0.69165 1.21969,0.60362 0.1186,-0.32497 -2.00272,-2.75689 -3.47065,-3.97885 -0.83287,-0.69335 -1.48855,-1.33121 -1.45706,-1.41749 0.0314,-0.0861 0.76261,0.30896 1.62472,0.87832 2.40333,1.58716 1.70799,0.36321 -1.02193,-1.7987 -2.55248,-2.02147 -6.85747,-4.45086 -8.99875,-5.07817 -1.62926,-0.47732 -4.06567,-0.60529 -3.87882,-0.20376 0.0737,0.15844 0.81331,0.56632 1.64343,0.90624 1.64491,0.67361 5.00221,2.64384 4.91452,2.88413 -0.03,0.0823 -0.35202,0.13284 -0.71569,0.11244 -1.08048,-0.0604 -0.91858,0.40063 0.37531,1.06895 1.79991,0.9296 3.30418,1.99558 3.20391,2.27041 -0.0487,0.13343 -0.66711,0.22142 -1.37434,0.1958 -2.72321,-0.0986 -2.39894,0.40395 1.21175,1.87804 2.81576,1.14955 5.36177,2.57849 5.23133,2.93605 -0.0379,0.10375 -0.39161,0.14862 -0.78613,0.1 -1.12761,-0.13909 -1.01418,0.35005 0.33394,1.43981 0.68335,0.55239 1.86698,1.67766 2.6303,2.50056 0.78672,0.84816 1.51349,1.40071 1.67797,1.27573 0.15961,-0.12137 0.44637,-0.0692 0.63724,0.11539 0.19088,0.18475 0.47408,0.27677 0.62922,0.20459 0.18579,-0.0864 -0.11763,-0.8416 -0.88929,-2.21324 z m -88.45651,33.32721 c 0.51258,-1.56448 0.48333,-2.98431 -0.0977,-4.74629 l -0.51477,-1.56072 -0.84279,-0.3075 c -1.07709,-0.39301 -1.56178,-0.15696 -1.92663,0.93825 -0.78853,2.36726 -0.1194,5.8437 1.29345,6.72008 0.99411,0.61664 1.65214,0.28773 2.08835,-1.04401 z m 37.06573,-17.21684 c 0.18884,-0.5627 0.68396,-1.55195 1.10029,-2.19834 l 0.75688,-1.17528 -0.89965,-0.22503 -0.89961,-0.22503 0.34441,-0.4773 c 0.63985,-0.88676 0.12725,-1.0983 -0.93032,-0.38391 l -1.00291,0.67755 -0.35024,-0.75263 -0.35024,-0.75266 1.61148,-0.74989 c 1.20064,-0.55872 1.73486,-0.97914 2.09548,-1.64878 0.65452,-1.21559 0.57317,-1.88922 -0.14234,-1.17858 -0.29362,0.29146 -1.28592,0.88013 -2.2052,1.30793 l -1.67148,0.77782 -1.63603,-0.29542 c -1.72922,-0.31224 -1.76765,-0.2863 -1.50269,1.01453 0.1264,0.62074 0.004,0.90418 -0.48747,1.13311 -1.0018,0.46618 -0.85222,0.92735 0.37444,1.15467 1.30523,0.24186 1.34662,0.51155 0.0925,0.60225 -1.28811,0.0932 -1.45527,0.77117 -0.30398,1.23237 1.01021,0.40476 1.29579,0.76968 0.63791,0.81524 -0.69948,0.0484 -0.68759,0.47938 0.0215,0.77887 0.4262,0.18006 0.57358,0.37692 0.43733,0.58414 -0.3463,0.52663 -0.0425,0.75852 0.93849,0.71649 0.51557,-0.0221 1.35174,0.12532 1.85812,0.32869 1.17559,0.47101 1.68514,0.21518 2.11349,-1.06066 z m -43.19936,20.0155 c 0.78519,-1.1786 1.15523,-2.90868 1.14018,-5.33072 -0.01,-1.54441 -0.23195,-2.47719 -1.09308,-4.5854 l -1.08109,-2.6465 -0.84774,-0.4129 c -0.62918,-0.30641 -1.11217,-0.28982 -1.87343,0.0645 l -1.02566,0.47729 -0.44258,1.50763 c -0.91501,3.11712 -0.25785,8.29622 1.33497,10.52121 0.69523,0.97121 2.29425,1.78008 2.92983,1.48208 0.19268,-0.0905 0.62408,-0.57505 0.95852,-1.07708 z m 26.78483,-16.64568 c 0.38932,-0.40242 -0.0341,-1.60429 -0.58833,-1.67002 -1.1322,-0.13427 -1.44153,1.51975 -0.35813,1.91505 0.55664,0.20309 0.49838,0.21818 0.94648,-0.24508 z m -14.7607,3.35527 c 1.08621,-2.77707 1.88264,-4.05762 3.22551,-5.18607 l 0.59227,-0.49769 -0.40931,0.89085 -0.40928,0.89088 0.58716,-0.50863 c 0.32293,-0.2798 1.11611,-0.96534 1.76262,-1.5235 0.6465,-0.55816 2.86909,-1.91358 4.93909,-3.01204 l 3.76363,-1.99722 0.35423,-0.88416 c 0.45838,-1.1441 0.60001,-1.18641 1.122,-0.33525 l 0.43233,0.70508 1.302,-0.16894 c 0.97256,-0.12617 1.31075,-0.0422 1.33668,0.33187 0.0424,0.61193 1.14291,0.87841 1.99329,0.48268 1.1027,-0.51314 1.76522,-1.60192 1.74671,-2.87059 l -0.0181,-1.2389 -0.96151,-1.44261 c -1.00863,-1.5133 -1.75314,-1.89808 -2.76317,-1.42806 -0.32391,0.15072 -1.02925,0.1705 -1.56746,0.044 -0.53821,-0.1266 -1.10563,-0.10805 -1.26099,0.0413 -0.15528,0.1494 -0.89428,0.29186 -1.64226,0.31651 -0.74789,0.0247 -2.12143,0.31728 -3.05228,0.65009 -0.93091,0.33268 -2.20575,0.56005 -2.83306,0.50498 -0.62733,-0.0551 -1.92955,0.0772 -2.89383,0.29379 l -1.75322,0.39389 -0.1154,0.58208 c -0.1133,0.57091 -0.89343,1.12761 -6.28447,4.48449 -2.41438,1.50339 -2.57419,1.67176 -2.24942,2.36968 0.14454,0.31061 -0.0613,0.87231 -0.53736,1.46637 -0.49851,0.62213 -0.79428,1.46627 -0.83562,2.38507 -0.0351,0.78216 -0.16845,1.70844 -0.29613,2.05837 -0.43463,1.19123 -0.35732,1.9505 0.19474,1.91228 0.38241,-0.0264 0.56207,0.20764 0.76299,0.9942 l 0.26289,1.02883 0.50119,-0.46028 0.5012,-0.46029 0.1435,0.74744 c 0.14608,0.76096 0.81509,1.12022 0.89119,0.47853 0.0231,-0.19384 0.20821,-0.57432 0.41158,-0.84529 l 0.36979,-0.49266 0.42674,1.27365 c 0.30645,0.91436 0.52367,1.2285 0.77049,1.11365 0.18904,-0.088 0.85915,-1.47774 1.48915,-3.08844 z m -2.66855,-3.51171 c -1.17271,0.33354 -1.14782,-0.0835 0.067,-1.12461 0.82116,-0.70372 1.26365,-0.9185 1.9029,-0.92362 1.7935,-0.0144 0.48023,1.35108 -1.96994,2.04818 z m 2.64003,-2.64767 c -0.16143,-0.10607 -0.10998,-0.27838 0.11289,-0.38205 0.22349,-0.10401 0.53838,-0.10228 0.69979,0.004 0.16141,0.10606 0.10998,0.27837 -0.11289,0.38206 -0.22348,0.10399 -0.53838,0.10226 -0.69981,-0.004 z m 43.26127,-12.55506 c 0.0737,-0.62106 -0.78491,-1.27952 -1.3346,-1.02373 -0.59124,0.27514 -0.65019,1.02688 -0.12064,1.53912 0.38936,0.3766 1.3916,0.0217 1.45526,-0.51541 z m 9.93447,134.30438 -0.93704,-2.01364 -0.79748,0.23373 c -0.43857,0.12867 -0.0449,-0.13851 0.87669,-0.59461 l 1.67418,-0.82836 1.00844,2.16708 1.00844,2.16705 -0.94808,0.44119 -0.9481,0.44119 z"
   id="path2708-6" />
<path
   class="st10"
   d="M167,132.2l60.6-25.7c1-0.4,2.2,0,2.6,1.1l0.1,0.3c0.4,1,0,2.2-1.1,2.6l-60.7,25.7c-1,0.4-2.2,0-2.6-1.1  l-0.1-0.3C165.5,133.8,165.9,132.7,167,132.2z"
   id="path39" />
<circle
   class="st10"
   cx="243.8"
   cy="101.6"
   r="2.6"
   id="circle41" />
<linearGradient
   id="SVGID_2_"
   gradientUnits="userSpaceOnUse"
   x1="583.2631"
   y1="448.7781"
   x2="583.2631"
   y2="343.6335"
   gradientTransform="matrix(0.8945 -0.4471 0.4471 0.8945 -393.847 264.8061)">
	<stop
   offset="0"
   style="stop-color:#000000;stop-opacity:0"
   id="stop43" />
	<stop
   offset="0.55"
   style="stop-color:#000000;stop-opacity:9.000000e-002"
   id="stop45" />
	<stop
   offset="1"
   style="stop-color:#000000;stop-opacity:2.000000e-002"
   id="stop47" />
</linearGradient>


<g
   class="st12"
   id="g58">
	<path
   class="st8"
   d="M170.4,161.5l99.8-42.3c11.5-4.9,17.8-17.5,14.6-29.7l51-21.6l-0.8-1.8c-2.6-6.1-9.5-8.9-15.6-6.3l0,0   l-53.6,22.7c3.1,12.2-3.1,24.8-14.6,29.7l-99.8,42.3c-2.7,1.1-5.5,1.8-8.4,1.9C150.3,163.4,161.1,165.4,170.4,161.5z"
   id="path54" />
	<path
   class="st8"
   d="M79.7,189.3c-2.6-6.1,0.3-13,6.3-15.6l0,0l45.5-19.3c-4.9-2.1-9-5.6-11.7-10.1l-52.9,22.4   c-6.1,2.6-8.9,9.5-6.3,15.6l0,0l200.5,473.3c2.6,6.1,9.5,8.9,15.6,6.3l0,0l2.6-1.1L79.7,189.3z"
   id="path56" />
</g>
</svg>
